Lora-Regular.ufo
<glyph name="dollar" format="1">
  <advance width="529"/>
  <unicode hex="0024"/>
  <outline>
    <contour>
      <point x="239" y="833" type="line"/>
      <point x="239" y="716" type="line"/>
      <point x="99" y="713"/>
      <point x="50" y="605"/>
      <point x="50" y="542" type="curve" smooth="yes"/>
      <point x="50" y="313"/>
      <point x="408" y="332"/>
      <point x="408" y="148" type="curve" smooth="yes"/>
      <point x="408" y="75"/>
      <point x="353" y="23"/>
      <point x="275" y="23" type="curve" smooth="yes"/>
      <point x="169" y="23"/>
      <point x="99" y="75"/>
      <point x="92" y="198" type="curve"/>
      <point x="57" y="198" type="line"/>
      <point x="57" y="-13" type="line"/>
      <point x="111" y="-13" type="line"/>
      <point x="106" y="27" type="line"/>
      <point x="143" y="4"/>
      <point x="198" y="-14"/>
      <point x="244" y="-16" type="curve"/>
      <point x="245" y="-153" type="line"/>
      <point x="297" y="-153" type="line"/>
      <point x="297" y="-16" type="line"/>
      <point x="428" y="-7"/>
      <point x="492" y="77"/>
      <point x="492" y="170" type="curve" smooth="yes"/>
      <point x="492" y="395"/>
      <point x="131" y="386"/>
      <point x="131" y="560" type="curve" smooth="yes"/>
      <point x="131" y="619"/>
      <point x="169" y="678"/>
      <point x="253" y="678" type="curve" smooth="yes"/>
      <point x="370" y="678"/>
      <point x="406" y="594"/>
      <point x="412" y="498" type="curve"/>
      <point x="449" y="498" type="line"/>
      <point x="449" y="716" type="line"/>
      <point x="399" y="716" type="line"/>
      <point x="403" y="674" type="line"/>
      <point x="367" y="701"/>
      <point x="330" y="712"/>
      <point x="292" y="716" type="curve"/>
      <point x="293" y="833" type="line"/>
    </contour>
  </outline>
</glyph>
<glyph name="ampersand" format="1">
  <advance width="695"/>
  <unicode hex="0026"/>
  <outline>
    <contour>
      <point x="195" y="716"/>
      <point x="118" y="655"/>
      <point x="117" y="559" type="curve" smooth="yes"/>
      <point x="117" y="496"/>
      <point x="140" y="443"/>
      <point x="193" y="376" type="curve"/>
      <point x="97" y="334"/>
      <point x="36" y="266"/>
      <point x="36" y="180" type="curve" smooth="yes"/>
      <point x="36" y="38"/>
      <point x="154" y="-16"/>
      <point x="271" y="-16" type="curve" smooth="yes"/>
      <point x="375" y="-16"/>
      <point x="443" y="28"/>
      <point x="486" y="83" type="curve"/>
      <point x="555" y="22"/>
      <point x="598" y="0"/>
      <point x="610" y="0" type="curve" smooth="yes"/>
      <point x="703" y="0" type="line"/>
      <point x="703" y="33" type="line"/>
      <point x="682" y="33"/>
      <point x="637" y="58"/>
      <point x="577" y="112" type="curve" smooth="yes"/>
      <point x="558" y="128"/>
      <point x="542" y="144"/>
      <point x="527" y="157" type="curve"/>
      <point x="543" y="200"/>
      <point x="548" y="241"/>
      <point x="547" y="267" type="curve" smooth="yes"/>
      <point x="546" y="304"/>
      <point x="537" y="332"/>
      <point x="516" y="350" type="curve"/>
      <point x="599" y="346" type="line"/>
      <point x="599" y="387" type="line"/>
      <point x="424" y="387" type="line"/>
      <point x="424" y="354" type="line"/>
      <point x="483" y="351"/>
      <point x="500" y="300"/>
      <point x="500" y="254" type="curve" smooth="yes"/>
      <point x="500" y="236"/>
      <point x="497" y="214"/>
      <point x="490" y="190" type="curve"/>
      <point x="438" y="239"/>
      <point x="413" y="264"/>
      <point x="385" y="293" type="curve" smooth="yes"/>
      <point x="358" y="321"/>
      <point x="330" y="350"/>
      <point x="305" y="377" type="curve"/>
      <point x="425" y="438"/>
      <point x="469" y="502"/>
      <point x="469" y="576" type="curve" smooth="yes"/>
      <point x="469" y="655"/>
      <point x="403" y="716"/>
      <point x="302" y="716" type="curve" smooth="yes"/>
    </contour>
    <contour>
      <point x="267" y="292"/>
      <point x="335" y="226"/>
      <point x="425" y="138" type="curve" smooth="yes"/>
      <point x="435" y="128"/>
      <point x="444" y="120"/>
      <point x="454" y="111" type="curve"/>
      <point x="420" y="66"/>
      <point x="367" y="31"/>
      <point x="283" y="34" type="curve" smooth="yes"/>
      <point x="209" y="37"/>
      <point x="136" y="85"/>
      <point x="136" y="195" type="curve" smooth="yes"/>
      <point x="136" y="236"/>
      <point x="155" y="309"/>
      <point x="219" y="347" type="curve"/>
    </contour>
    <contour>
      <point x="358" y="684"/>
      <point x="393" y="637"/>
      <point x="393" y="573" type="curve" smooth="yes"/>
      <point x="393" y="514"/>
      <point x="358" y="450"/>
      <point x="283" y="401" type="curve"/>
      <point x="236" y="453"/>
      <point x="201" y="510"/>
      <point x="201" y="567" type="curve" smooth="yes"/>
      <point x="201" y="642"/>
      <point x="242" y="684"/>
      <point x="297" y="684" type="curve" smooth="yes"/>
    </contour>
  </outline>
</glyph>
<glyph name="asterisk" format="1">
  <advance width="520"/>
  <unicode hex="002A"/>
  <outline>
    <contour>
      <point x="223" y="716"/>
      <point x="218" y="675"/>
      <point x="222" y="644" type="curve" smooth="yes"/>
      <point x="227" y="599"/>
      <point x="233" y="547"/>
      <point x="245" y="508" type="curve"/>
      <point x="211" y="531"/>
      <point x="165" y="552"/>
      <point x="124" y="571" type="curve" smooth="yes"/>
      <point x="94" y="585"/>
      <point x="54" y="593"/>
      <point x="42" y="559" type="curve" smooth="yes"/>
      <point x="30" y="523"/>
      <point x="67" y="507"/>
      <point x="99" y="500" type="curve" smooth="yes"/>
      <point x="142" y="492"/>
      <point x="194" y="482"/>
      <point x="236" y="480" type="curve"/>
      <point x="203" y="456"/>
      <point x="169" y="419"/>
      <point x="138" y="386" type="curve" smooth="yes"/>
      <point x="117" y="362"/>
      <point x="97" y="324"/>
      <point x="125" y="302" type="curve"/>
      <point x="156" y="281"/>
      <point x="182" y="311"/>
      <point x="198" y="338" type="curve" smooth="yes"/>
      <point x="219" y="377"/>
      <point x="245" y="425"/>
      <point x="260" y="463" type="curve"/>
      <point x="274" y="425"/>
      <point x="301" y="377"/>
      <point x="322" y="338" type="curve"/>
      <point x="339" y="311"/>
      <point x="365" y="281"/>
      <point x="394" y="302" type="curve" smooth="yes"/>
      <point x="424" y="324"/>
      <point x="403" y="363"/>
      <point x="381" y="386" type="curve" smooth="yes"/>
      <point x="350" y="419"/>
      <point x="315" y="455"/>
      <point x="283" y="480" type="curve"/>
      <point x="324" y="482"/>
      <point x="375" y="492"/>
      <point x="419" y="500" type="curve"/>
      <point x="452" y="508"/>
      <point x="488" y="523"/>
      <point x="476" y="559" type="curve" smooth="yes"/>
      <point x="465" y="592"/>
      <point x="423" y="585"/>
      <point x="394" y="571" type="curve" smooth="yes"/>
      <point x="353" y="551"/>
      <point x="308" y="530"/>
      <point x="273" y="508" type="curve"/>
      <point x="285" y="547"/>
      <point x="291" y="599"/>
      <point x="296" y="644" type="curve" smooth="yes"/>
      <point x="300" y="675"/>
      <point x="297" y="716"/>
      <point x="260" y="716" type="curve" smooth="yes"/>
    </contour>
  </outline>
</glyph>
<glyph name="comma" format="1">
  <advance width="253"/>
  <unicode hex="002C"/>
  <outline>
    <contour>
      <point x="91" y="101"/>
      <point x="66" y="80"/>
      <point x="66" y="43" type="curve" smooth="yes"/>
      <point x="66" y="7"/>
      <point x="99" y="-17"/>
      <point x="137" y="0" type="curve" smooth="yes"/>
      <point x="144" y="-61"/>
      <point x="113" y="-131"/>
      <point x="91" y="-159" type="curve"/>
      <point x="118" y="-179" type="line"/>
      <point x="162" y="-134"/>
      <point x="192" y="-41"/>
      <point x="192" y="10" type="curve" smooth="yes"/>
      <point x="192" y="61"/>
      <point x="167" y="101"/>
      <point x="121" y="101" type="curve" smooth="yes"/>
    </contour>
  </outline>
</glyph>
<glyph name="zero" format="1">
  <advance width="621"/>
  <unicode hex="0030"/>
  <outline>
    <contour>
      <point x="129" y="716"/>
      <point x="56" y="515"/>
      <point x="56" y="347" type="curve" smooth="yes"/>
      <point x="56" y="180"/>
      <point x="107" y="-16"/>
      <point x="311" y="-16" type="curve" smooth="yes"/>
      <point x="497" y="-16"/>
      <point x="566" y="186"/>
      <point x="566" y="352" type="curve" smooth="yes"/>
      <point x="566" y="519"/>
      <point x="509" y="716"/>
      <point x="315" y="716" type="curve" smooth="yes"/>
    </contour>
    <contour>
      <point x="431" y="678"/>
      <point x="463" y="493"/>
      <point x="463" y="331" type="curve" smooth="yes"/>
      <point x="463" y="184"/>
      <point x="431" y="23"/>
      <point x="317" y="23" type="curve" smooth="yes"/>
      <point x="188" y="23"/>
      <point x="159" y="229"/>
      <point x="159" y="368" type="curve" smooth="yes"/>
      <point x="159" y="517"/>
      <point x="198" y="678"/>
      <point x="313" y="678" type="curve" smooth="yes"/>
    </contour>
  </outline>
</glyph>
<glyph name="four" format="1">
  <advance width="542"/>
  <unicode hex="0034"/>
  <outline>
    <contour>
      <point x="374" y="716" type="line"/>
      <point x="12" y="242" type="line"/>
      <point x="12" y="193" type="line"/>
      <point x="316" y="193" type="line"/>
      <point x="316" y="159" type="line" smooth="yes"/>
      <point x="316" y="86"/>
      <point x="304" y="38"/>
      <point x="236" y="33" type="curve" smooth="yes"/>
      <point x="229" y="33" type="line"/>
      <point x="229" y="0" type="line"/>
      <point x="480" y="0" type="line"/>
      <point x="480" y="41" type="line"/>
      <point x="403" y="38" type="line"/>
      <point x="407" y="58"/>
      <point x="407" y="82"/>
      <point x="407" y="109" type="curve" smooth="yes"/>
      <point x="407" y="193" type="line"/>
      <point x="508" y="193" type="line"/>
      <point x="508" y="252" type="line"/>
      <point x="407" y="253" type="line"/>
      <point x="407" y="716" type="line"/>
    </contour>
    <contour>
      <point x="316" y="255" type="line"/>
      <point x="78" y="258" type="line"/>
      <point x="314" y="574" type="line"/>
      <point x="316" y="574" type="line"/>
    </contour>
  </outline>
</glyph>
<glyph name="five" format="1">
  <advance width="544"/>
  <unicode hex="0035"/>
  <outline>
    <contour>
      <point x="438" y="765" type="line"/>
      <point x="438" y="720"/>
      <point x="414" y="700"/>
      <point x="338" y="700" type="curve" smooth="yes"/>
      <point x="79" y="700" type="line"/>
      <point x="81" y="380" type="line"/>
      <point x="109" y="354" type="line"/>
      <point x="143" y="376"/>
      <point x="207" y="389"/>
      <point x="241" y="389" type="curve" smooth="yes"/>
      <point x="382" y="389"/>
      <point x="396" y="267"/>
      <point x="396" y="192" type="curve" smooth="yes"/>
      <point x="396" y="107"/>
      <point x="355" y="27"/>
      <point x="258" y="23" type="curve" smooth="yes"/>
      <point x="211" y="21"/>
      <point x="142" y="42"/>
      <point x="134" y="91" type="curve"/>
      <point x="140" y="103"/>
      <point x="145" y="117"/>
      <point x="145" y="130" type="curve" smooth="yes"/>
      <point x="145" y="148"/>
      <point x="134" y="177"/>
      <point x="98" y="175" type="curve" smooth="yes"/>
      <point x="68" y="174"/>
      <point x="52" y="150"/>
      <point x="52" y="120" type="curve" smooth="yes"/>
      <point x="52" y="61"/>
      <point x="126" y="-16"/>
      <point x="254" y="-16" type="curve" smooth="yes"/>
      <point x="384" y="-16"/>
      <point x="500" y="62"/>
      <point x="500" y="210" type="curve" smooth="yes"/>
      <point x="500" y="318"/>
      <point x="434" y="434"/>
      <point x="270" y="434" type="curve" smooth="yes"/>
      <point x="211" y="434"/>
      <point x="157" y="419"/>
      <point x="125" y="406" type="curve"/>
      <point x="125" y="626" type="line"/>
      <point x="459" y="633" type="line"/>
      <point x="465" y="765" type="line"/>
    </contour>
  </outline>
</glyph>
<glyph name="eight" format="1">
  <advance width="562"/>
  <unicode hex="0038"/>
  <outline>
    <contour>
      <point x="184" y="716"/>
      <point x="73" y="661"/>
      <point x="73" y="535" type="curve" smooth="yes"/>
      <point x="73" y="477"/>
      <point x="109" y="416"/>
      <point x="211" y="355" type="curve"/>
      <point x="133" y="307"/>
      <point x="59" y="240"/>
      <point x="59" y="150" type="curve" smooth="yes"/>
      <point x="59" y="24"/>
      <point x="183" y="-16"/>
      <point x="276" y="-16" type="curve" smooth="yes"/>
      <point x="400" y="-16"/>
      <point x="512" y="40"/>
      <point x="512" y="166" type="curve" smooth="yes"/>
      <point x="512" y="252"/>
      <point x="434" y="328"/>
      <point x="345" y="380" type="curve"/>
      <point x="419" y="417"/>
      <point x="480" y="476"/>
      <point x="480" y="555" type="curve" smooth="yes"/>
      <point x="480" y="659"/>
      <point x="386" y="716"/>
      <point x="285" y="716" type="curve" smooth="yes"/>
    </contour>
    <contour>
      <point x="372" y="285"/>
      <point x="414" y="216"/>
      <point x="414" y="147" type="curve" smooth="yes"/>
      <point x="414" y="69"/>
      <point x="364" y="23"/>
      <point x="278" y="24" type="curve" smooth="yes"/>
      <point x="193" y="25"/>
      <point x="138" y="83"/>
      <point x="143" y="168" type="curve" smooth="yes"/>
      <point x="146" y="217"/>
      <point x="175" y="284"/>
      <point x="249" y="337" type="curve"/>
    </contour>
    <contour>
      <point x="358" y="676"/>
      <point x="404" y="629"/>
      <point x="402" y="543" type="curve" smooth="yes"/>
      <point x="401" y="493"/>
      <point x="369" y="440"/>
      <point x="310" y="400" type="curve"/>
      <point x="229" y="428"/>
      <point x="166" y="484"/>
      <point x="166" y="557" type="curve" smooth="yes"/>
      <point x="166" y="619"/>
      <point x="208" y="678"/>
      <point x="287" y="677" type="curve" smooth="yes"/>
    </contour>
  </outline>
</glyph>
<glyph name="equal" format="1">
  <advance width="592"/>
  <unicode hex="003D"/>
  <outline>
    <contour>
      <point x="73" y="375" type="line"/>
      <point x="519" y="377" type="line"/>
      <point x="519" y="435" type="line"/>
      <point x="73" y="437" type="line"/>
    </contour>
    <contour>
      <point x="73" y="187" type="line"/>
      <point x="519" y="189" type="line"/>
      <point x="519" y="247" type="line"/>
      <point x="73" y="249" type="line"/>
    </contour>
  </outline>
</glyph>
<glyph name="at" format="1">
  <advance width="796"/>
  <unicode hex="0040"/>
  <outline>
    <contour>
      <point x="159" y="623"/>
      <point x="50" y="425"/>
      <point x="50" y="257" type="curve" smooth="yes"/>
      <point x="50" y="65"/>
      <point x="172" y="-100"/>
      <point x="418" y="-95" type="curve" smooth="yes"/>
      <point x="523" y="-93"/>
      <point x="614" y="-58"/>
      <point x="678" y="16" type="curve"/>
      <point x="654" y="41" type="line"/>
      <point x="584" y="-42"/>
      <point x="486" y="-54"/>
      <point x="417" y="-52" type="curve" smooth="yes"/>
      <point x="268" y="-48"/>
      <point x="127" y="46"/>
      <point x="127" y="263" type="curve" smooth="yes"/>
      <point x="127" y="431"/>
      <point x="225" y="581"/>
      <point x="390" y="594" type="curve" smooth="yes"/>
      <point x="555" y="607"/>
      <point x="689" y="518"/>
      <point x="683" y="277" type="curve" smooth="yes"/>
      <point x="680" y="159"/>
      <point x="624" y="88"/>
      <point x="568" y="100" type="curve" smooth="yes"/>
      <point x="531" y="108"/>
      <point x="528" y="162"/>
      <point x="532" y="214" type="curve" smooth="yes"/>
      <point x="537" y="280"/>
      <point x="551" y="378"/>
      <point x="562" y="469" type="curve"/>
      <point x="529" y="478"/>
      <point x="485" y="482"/>
      <point x="454" y="482" type="curve" smooth="yes"/>
      <point x="301" y="482"/>
      <point x="219" y="355"/>
      <point x="219" y="209" type="curve" smooth="yes"/>
      <point x="219" y="111"/>
      <point x="269" y="70"/>
      <point x="325" y="70" type="curve" smooth="yes"/>
      <point x="368" y="70"/>
      <point x="428" y="91"/>
      <point x="477" y="243" type="curve"/>
      <point x="479" y="243" type="line"/>
      <point x="465" y="166"/>
      <point x="452" y="82"/>
      <point x="544" y="66" type="curve" smooth="yes"/>
      <point x="611" y="54"/>
      <point x="754" y="108"/>
      <point x="754" y="318" type="curve" smooth="yes"/>
      <point x="754" y="478"/>
      <point x="634" y="649"/>
      <point x="398" y="636" type="curve" smooth="yes"/>
    </contour>
    <contour>
      <point x="454" y="452"/>
      <point x="475" y="449"/>
      <point x="491" y="443" type="curve"/>
      <point x="490" y="303"/>
      <point x="414" y="108"/>
      <point x="342" y="108" type="curve" smooth="yes"/>
      <point x="308" y="108"/>
      <point x="289" y="151"/>
      <point x="289" y="218" type="curve" smooth="yes"/>
      <point x="289" y="323"/>
      <point x="335" y="452"/>
      <point x="429" y="452" type="curve" smooth="yes"/>
    </contour>
  </outline>
</glyph>
<glyph name="A" format="1">
  <advance width="626"/>
  <unicode hex="0041"/>
  <outline>
    <contour>
      <point x="297" y="719" type="line"/>
      <point x="91" y="158" type="line" smooth="yes"/>
      <point x="63" y="84"/>
      <point x="54" y="33"/>
      <point x="-6" y="33" type="curve"/>
      <point x="-6" y="0" type="line"/>
      <point x="181" y="0" type="line"/>
      <point x="181" y="44" type="line"/>
      <point x="103" y="40" type="line"/>
      <point x="112" y="62"/>
      <point x="118" y="77"/>
      <point x="128" y="109" type="curve" smooth="yes"/>
      <point x="138" y="142"/>
      <point x="148" y="175"/>
      <point x="163" y="216" type="curve"/>
      <point x="423" y="222" type="line"/>
      <point x="458" y="128" type="line" smooth="yes"/>
      <point x="472" y="91"/>
      <point x="484" y="35"/>
      <point x="409" y="33" type="curve"/>
      <point x="409" y="0" type="line"/>
      <point x="638" y="0" type="line"/>
      <point x="638" y="44" type="line"/>
      <point x="570" y="40" type="line"/>
      <point x="572" y="70"/>
      <point x="555" y="122"/>
      <point x="544" y="150" type="curve" smooth="yes"/>
      <point x="321" y="719" type="line"/>
    </contour>
    <contour>
      <point x="338" y="450" type="line"/>
      <point x="409" y="259" type="line"/>
      <point x="178" y="259" type="line"/>
      <point x="196" y="310"/>
      <point x="218" y="374"/>
      <point x="249" y="460" type="curve" smooth="yes"/>
      <point x="291" y="573" type="line"/>
      <point x="293" y="573" type="line"/>
    </contour>
    <contour>
      <point x="563" y="-0" type="move" name="ogonek"/>
    </contour>
    <contour>
      <point x="313" y="700" type="move" name="top"/>
    </contour>
  </outline>
</glyph>
<glyph name="D" format="1">
  <advance width="745"/>
  <unicode hex="0044"/>
  <outline>
    <contour>
      <point x="55" y="700" type="line"/>
      <point x="55" y="656" type="line"/>
      <point x="127" y="660" type="line"/>
      <point x="125" y="640"/>
      <point x="124" y="615"/>
      <point x="124" y="588" type="curve" smooth="yes"/>
      <point x="124" y="156" type="line" smooth="yes"/>
      <point x="124" y="85"/>
      <point x="130" y="36"/>
      <point x="55" y="33" type="curve"/>
      <point x="55" y="0" type="line"/>
      <point x="318" y="0" type="line" smooth="yes"/>
      <point x="569" y="0"/>
      <point x="699" y="165"/>
      <point x="699" y="349" type="curve" smooth="yes"/>
      <point x="699" y="590"/>
      <point x="532" y="702"/>
      <point x="291" y="701" type="curve" smooth="yes"/>
    </contour>
    <contour>
      <point x="500" y="664"/>
      <point x="601" y="542"/>
      <point x="601" y="353" type="curve" smooth="yes"/>
      <point x="601" y="174"/>
      <point x="487" y="38"/>
      <point x="315" y="38" type="curve" smooth="yes"/>
      <point x="307" y="38"/>
      <point x="261" y="37"/>
      <point x="208" y="40" type="curve"/>
      <point x="210" y="57"/>
      <point x="211" y="82"/>
      <point x="211" y="118" type="curve" smooth="yes"/>
      <point x="211" y="544" type="line" smooth="yes"/>
      <point x="211" y="615"/>
      <point x="205" y="664"/>
      <point x="280" y="664" type="curve" smooth="yes"/>
    </contour>
    <contour>
      <point x="373" y="350" type="move" name="center"/>
    </contour>
    <contour>
      <point x="346" y="700" type="move" name="top"/>
    </contour>
  </outline>
</glyph>
<glyph name="N" format="1">
  <advance width="762"/>
  <unicode hex="004E"/>
  <outline>
    <contour>
      <point x="535" y="700" type="line"/>
      <point x="535" y="656" type="line"/>
      <point x="607" y="660" type="line"/>
      <point x="605" y="640"/>
      <point x="604" y="615"/>
      <point x="604" y="588" type="curve" smooth="yes"/>
      <point x="603" y="130" type="line"/>
      <point x="602" y="130" type="line"/>
      <point x="176" y="700" type="line"/>
      <point x="57" y="700" type="line"/>
      <point x="57" y="656" type="line"/>
      <point x="124" y="660" type="line"/>
      <point x="123" y="112" type="line" smooth="yes"/>
      <point x="123" y="81"/>
      <point x="118" y="33"/>
      <point x="57" y="33" type="curve"/>
      <point x="57" y="0" type="line"/>
      <point x="240" y="0" type="line"/>
      <point x="240" y="44" type="line"/>
      <point x="168" y="40" type="line"/>
      <point x="170" y="72"/>
      <point x="170" y="105"/>
      <point x="170" y="139" type="curve" smooth="yes"/>
      <point x="167" y="567" type="line"/>
      <point x="168" y="567" type="line"/>
      <point x="602" y="-16" type="line"/>
      <point x="650" y="-16" type="line"/>
      <point x="652" y="544" type="line" smooth="yes"/>
      <point x="652" y="615"/>
      <point x="644" y="664"/>
      <point x="719" y="667" type="curve"/>
      <point x="719" y="700" type="line"/>
    </contour>
    <contour>
      <point x="395" y="700" type="move" name="top"/>
    </contour>
    <contour>
      <point x="381" y="0" type="move" name="bottom"/>
    </contour>
  </outline>
</glyph>
<glyph name="R" format="1">
  <advance width="628"/>
  <unicode hex="0052"/>
  <outline>
    <contour>
      <point x="207" y="703"/>
      <point x="130" y="701"/>
      <point x="55" y="700" type="curve"/>
      <point x="55" y="656" type="line"/>
      <point x="127" y="660" type="line"/>
      <point x="125" y="640"/>
      <point x="124" y="615"/>
      <point x="124" y="588" type="curve" smooth="yes"/>
      <point x="124" y="156" type="line" smooth="yes"/>
      <point x="124" y="85"/>
      <point x="130" y="36"/>
      <point x="55" y="33" type="curve"/>
      <point x="55" y="0" type="line"/>
      <point x="280" y="0" type="line"/>
      <point x="280" y="44" type="line"/>
      <point x="208" y="40" type="line"/>
      <point x="210" y="57"/>
      <point x="211" y="83"/>
      <point x="211" y="119" type="curve" smooth="yes"/>
      <point x="211" y="313" type="line"/>
      <point x="234" y="312"/>
      <point x="257" y="311"/>
      <point x="279" y="313" type="curve" smooth="yes"/>
      <point x="307" y="287"/>
      <point x="328" y="246"/>
      <point x="346" y="218" type="curve" smooth="yes"/>
      <point x="413" y="111" type="line" smooth="yes"/>
      <point x="441" y="67"/>
      <point x="463" y="34"/>
      <point x="502" y="0" type="curve"/>
      <point x="628" y="0" type="line"/>
      <point x="628" y="33" type="line"/>
      <point x="565" y="33"/>
      <point x="540" y="74"/>
      <point x="506" y="128" type="curve" smooth="yes"/>
      <point x="438" y="235" type="line" smooth="yes"/>
      <point x="413" y="274"/>
      <point x="395" y="303"/>
      <point x="369" y="322" type="curve"/>
      <point x="521" y="353"/>
      <point x="557" y="444"/>
      <point x="556" y="522" type="curve" smooth="yes"/>
      <point x="556" y="633"/>
      <point x="477" y="698"/>
      <point x="284" y="701" type="curve" smooth="yes"/>
    </contour>
    <contour>
      <point x="403" y="663"/>
      <point x="459" y="612"/>
      <point x="459" y="511" type="curve" smooth="yes"/>
      <point x="459" y="396"/>
      <point x="382" y="354"/>
      <point x="273" y="350" type="curve" smooth="yes"/>
      <point x="250" y="349"/>
      <point x="232" y="350"/>
      <point x="211" y="352" type="curve"/>
      <point x="211" y="544" type="line" smooth="yes"/>
      <point x="211" y="615"/>
      <point x="205" y="663"/>
      <point x="280" y="663" type="curve" smooth="yes"/>
    </contour>
    <contour>
      <point x="314" y="700" type="move" name="top"/>
    </contour>
    <contour>
      <point x="334" y="0" type="move" name="bottom"/>
    </contour>
  </outline>
</glyph>
<glyph name="d" format="1">
  <advance width="598"/>
  <unicode hex="0064"/>
  <outline>
    <contour>
      <point x="472" y="755" type="line"/>
      <point x="457" y="741"/>
      <point x="436" y="728"/>
      <point x="348" y="728" type="curve"/>
      <point x="348" y="686" type="line"/>
      <point x="419" y="690" type="line"/>
      <point x="416" y="663"/>
      <point x="416" y="646"/>
      <point x="416" y="625" type="curve" smooth="yes"/>
      <point x="416" y="488" type="line"/>
      <point x="390" y="502"/>
      <point x="343" y="516"/>
      <point x="299" y="516" type="curve" smooth="yes"/>
      <point x="150" y="516"/>
      <point x="42" y="399"/>
      <point x="42" y="236" type="curve" smooth="yes"/>
      <point x="42" y="81"/>
      <point x="135" y="-16"/>
      <point x="258" y="-16" type="curve" smooth="yes"/>
      <point x="324" y="-16"/>
      <point x="380" y="11"/>
      <point x="418" y="52" type="curve"/>
      <point x="419" y="36"/>
      <point x="421" y="20"/>
      <point x="425" y="0" type="curve"/>
      <point x="568" y="0" type="line"/>
      <point x="568" y="42" type="line"/>
      <point x="497" y="38" type="line"/>
      <point x="500" y="65"/>
      <point x="501" y="85"/>
      <point x="501" y="106" type="curve" smooth="yes"/>
      <point x="501" y="755" type="line"/>
    </contour>
    <contour>
      <point x="345" y="477"/>
      <point x="384" y="466"/>
      <point x="416" y="442" type="curve"/>
      <point x="415" y="154" type="line" smooth="yes"/>
      <point x="415" y="133"/>
      <point x="415" y="115"/>
      <point x="416" y="99" type="curve"/>
      <point x="386" y="61"/>
      <point x="338" y="33"/>
      <point x="294" y="33" type="curve" smooth="yes"/>
      <point x="200" y="33"/>
      <point x="149" y="122"/>
      <point x="145" y="245" type="curve" smooth="yes"/>
      <point x="140" y="384"/>
      <point x="205" y="477"/>
      <point x="305" y="477" type="curve" smooth="yes"/>
    </contour>
    <contour>
      <point x="299" y="250" type="move" name="center"/>
    </contour>
    <contour>
      <point x="588" y="500" type="move" name="topright"/>
    </contour>
  </outline>
</glyph>
<glyph name="n" format="1">
  <advance width="607"/>
  <unicode hex="006E"/>
  <outline>
    <contour>
      <point x="293" y="516"/>
      <point x="231" y="487"/>
      <point x="188" y="449" type="curve"/>
      <point x="187" y="477"/>
      <point x="186" y="495"/>
      <point x="184" y="510" type="curve"/>
      <point x="155" y="510" type="line"/>
      <point x="140" y="496"/>
      <point x="125" y="483"/>
      <point x="37" y="483" type="curve"/>
      <point x="37" y="441" type="line"/>
      <point x="108" y="445" type="line"/>
      <point x="104" y="422"/>
      <point x="104" y="401"/>
      <point x="104" y="380" type="curve" smooth="yes"/>
      <point x="103" y="152" type="line" smooth="yes"/>
      <point x="102" y="80"/>
      <point x="105" y="30"/>
      <point x="44" y="30" type="curve"/>
      <point x="44" y="0" type="line"/>
      <point x="248" y="0" type="line"/>
      <point x="248" y="41" type="line"/>
      <point x="185" y="38" type="line"/>
      <point x="189" y="61"/>
      <point x="189" y="79"/>
      <point x="189" y="106" type="curve" smooth="yes"/>
      <point x="190" y="361" type="line" smooth="yes"/>
      <point x="190" y="375"/>
      <point x="190" y="389"/>
      <point x="189" y="400" type="curve"/>
      <point x="219" y="437"/>
      <point x="269" y="464"/>
      <point x="317" y="465" type="curve" smooth="yes"/>
      <point x="396" y="466"/>
      <point x="431" y="406"/>
      <point x="432" y="292" type="curve" smooth="yes"/>
      <point x="432" y="152" type="line" smooth="yes"/>
      <point x="432" y="80"/>
      <point x="434" y="30"/>
      <point x="373" y="30" type="curve"/>
      <point x="373" y="0" type="line"/>
      <point x="577" y="0" type="line"/>
      <point x="577" y="41" type="line"/>
      <point x="514" y="38" type="line"/>
      <point x="518" y="61"/>
      <point x="518" y="79"/>
      <point x="518" y="106" type="curve" smooth="yes"/>
      <point x="518" y="292" type="line" smooth="yes"/>
      <point x="518" y="445"/>
      <point x="467" y="516"/>
      <point x="351" y="516" type="curve" smooth="yes"/>
    </contour>
    <contour>
      <point x="319" y="500" type="move" name="top"/>
    </contour>
    <contour>
      <point x="304" y="0" type="move" name="bottom"/>
    </contour>
  </outline>
</glyph>
<glyph name="cent" format="1">
  <advance width="531"/>
  <unicode hex="00A2"/>
  <outline>
    <contour>
      <point x="250" y="622" type="line"/>
      <point x="250" y="516" type="line"/>
      <point x="121" y="493"/>
      <point x="36" y="365"/>
      <point x="36" y="241" type="curve" smooth="yes"/>
      <point x="36" y="93"/>
      <point x="129" y="-1"/>
      <point x="249" y="-16" type="curve"/>
      <point x="249" y="-134" type="line"/>
      <point x="307" y="-134" type="line"/>
      <point x="308" y="-16" type="line"/>
      <point x="371" y="-9"/>
      <point x="446" y="28"/>
      <point x="493" y="102" type="curve"/>
      <point x="467" y="122" type="line"/>
      <point x="435" y="74"/>
      <point x="372" y="35"/>
      <point x="310" y="35" type="curve" smooth="yes"/>
      <point x="207" y="35"/>
      <point x="138" y="132"/>
      <point x="138" y="266" type="curve" smooth="yes"/>
      <point x="138" y="404"/>
      <point x="208" y="480"/>
      <point x="299" y="480" type="curve" smooth="yes"/>
      <point x="327" y="480"/>
      <point x="387" y="473"/>
      <point x="404" y="426" type="curve"/>
      <point x="393" y="414"/>
      <point x="389" y="399"/>
      <point x="389" y="386" type="curve" smooth="yes"/>
      <point x="389" y="369"/>
      <point x="401" y="340"/>
      <point x="436" y="341" type="curve" smooth="yes"/>
      <point x="465" y="341"/>
      <point x="482" y="365"/>
      <point x="482" y="394" type="curve" smooth="yes"/>
      <point x="482" y="455"/>
      <point x="416" y="510"/>
      <point x="314" y="516" type="curve"/>
      <point x="315" y="622" type="line"/>
    </contour>
  </outline>
</glyph>
<glyph name="currency" format="1">
  <advance width="535"/>
  <unicode hex="00A4"/>
  <outline>
    <contour>
      <point x="151" y="448"/>
      <point x="84" y="348"/>
      <point x="84" y="254" type="curve" smooth="yes"/>
      <point x="84" y="158"/>
      <point x="148" y="67"/>
      <point x="268" y="67" type="curve" smooth="yes"/>
      <point x="387" y="67"/>
      <point x="452" y="158"/>
      <point x="452" y="254" type="curve" smooth="yes"/>
      <point x="452" y="348"/>
      <point x="385" y="448"/>
      <point x="268" y="448" type="curve" smooth="yes"/>
    </contour>
    <contour>
      <point x="61" y="72" type="line"/>
      <point x="102" y="40" type="line"/>
      <point x="183" y="142" type="line"/>
      <point x="147" y="170" type="line"/>
    </contour>
    <contour>
      <point x="354" y="142" type="line"/>
      <point x="435" y="40" type="line"/>
      <point x="475" y="72" type="line"/>
      <point x="389" y="170" type="line"/>
    </contour>
    <contour>
      <point x="343" y="413"/>
      <point x="366" y="321"/>
      <point x="366" y="271" type="curve" smooth="yes"/>
      <point x="366" y="207"/>
      <point x="347" y="106"/>
      <point x="268" y="106" type="curve" smooth="yes"/>
      <point x="189" y="106"/>
      <point x="170" y="207"/>
      <point x="170" y="271" type="curve" smooth="yes"/>
      <point x="170" y="321"/>
      <point x="193" y="413"/>
      <point x="268" y="413" type="curve" smooth="yes"/>
    </contour>
    <contour>
      <point x="61" y="444" type="line"/>
      <point x="147" y="347" type="line"/>
      <point x="183" y="375" type="line"/>
      <point x="102" y="477" type="line"/>
    </contour>
    <contour>
      <point x="354" y="375" type="line"/>
      <point x="389" y="347" type="line"/>
      <point x="475" y="444" type="line"/>
      <point x="435" y="477" type="line"/>
    </contour>
  </outline>
</glyph>
<glyph name="brokenbar" format="1">
  <advance width="243"/>
  <unicode hex="00A6"/>
  <outline>
    <contour>
      <point x="84" y="760" type="line"/>
      <point x="87" y="385" type="line"/>
      <point x="155" y="385" type="line"/>
      <point x="159" y="760" type="line"/>
    </contour>
    <contour>
      <point x="84" y="101" type="line"/>
      <point x="87" y="-271" type="line"/>
      <point x="155" y="-271" type="line"/>
      <point x="159" y="101" type="line"/>
    </contour>
  </outline>
</glyph>
<glyph name="registered" format="1">
  <advance width="878"/>
  <unicode hex="00AE"/>
  <outline>
    <contour>
      <point x="209" y="750"/>
      <point x="44" y="570"/>
      <point x="44" y="348" type="curve" smooth="yes"/>
      <point x="44" y="116"/>
      <point x="200" y="-50"/>
      <point x="438" y="-50" type="curve" smooth="yes"/>
      <point x="660" y="-50"/>
      <point x="835" y="127"/>
      <point x="835" y="348" type="curve" smooth="yes"/>
      <point x="835" y="570"/>
      <point x="674" y="750"/>
      <point x="440" y="750" type="curve" smooth="yes"/>
    </contour>
    <contour>
      <point x="637" y="701"/>
      <point x="769" y="534"/>
      <point x="769" y="348" type="curve" smooth="yes"/>
      <point x="769" y="163"/>
      <point x="641" y="1"/>
      <point x="441" y="1" type="curve" smooth="yes"/>
      <point x="235" y="1"/>
      <point x="112" y="163"/>
      <point x="112" y="348" type="curve" smooth="yes"/>
      <point x="112" y="534"/>
      <point x="241" y="701"/>
      <point x="438" y="701" type="curve" smooth="yes"/>
    </contour>
    <contour>
      <point x="385" y="601"/>
      <point x="300" y="598"/>
      <point x="251" y="596" type="curve"/>
      <point x="251" y="554" type="line"/>
      <point x="301" y="559" type="line"/>
      <point x="299" y="546"/>
      <point x="299" y="529"/>
      <point x="299" y="511" type="curve" smooth="yes"/>
      <point x="299" y="250" type="line" smooth="yes"/>
      <point x="299" y="203"/>
      <point x="300" y="171"/>
      <point x="251" y="170" type="curve"/>
      <point x="251" y="136" type="line"/>
      <point x="421" y="136" type="line"/>
      <point x="419" y="176" type="line"/>
      <point x="371" y="174" type="line"/>
      <point x="372" y="186"/>
      <point x="373" y="202"/>
      <point x="373" y="225" type="curve" smooth="yes"/>
      <point x="373" y="323" type="line"/>
      <point x="384" y="322"/>
      <point x="415" y="321"/>
      <point x="428" y="323" type="curve"/>
      <point x="448" y="293"/>
      <point x="475" y="252"/>
      <point x="503" y="212" type="curve" smooth="yes"/>
      <point x="535" y="166"/>
      <point x="558" y="137"/>
      <point x="578" y="132" type="curve"/>
      <point x="665" y="132" type="line"/>
      <point x="665" y="166" type="line"/>
      <point x="636" y="166"/>
      <point x="617" y="178"/>
      <point x="542" y="291" type="curve" smooth="yes"/>
      <point x="525" y="315"/>
      <point x="511" y="327"/>
      <point x="500" y="332" type="curve"/>
      <point x="500" y="333" type="line"/>
      <point x="593" y="359"/>
      <point x="621" y="423"/>
      <point x="621" y="468" type="curve" smooth="yes"/>
      <point x="621" y="537"/>
      <point x="565" y="597"/>
      <point x="436" y="600" type="curve" smooth="yes"/>
    </contour>
    <contour>
      <point x="481" y="562"/>
      <point x="543" y="530"/>
      <point x="543" y="465" type="curve" smooth="yes"/>
      <point x="543" y="391"/>
      <point x="470" y="366"/>
      <point x="423" y="364" type="curve" smooth="yes"/>
      <point x="406" y="363"/>
      <point x="390" y="364"/>
      <point x="374" y="365" type="curve" smooth="yes"/>
      <point x="373" y="365" type="line"/>
      <point x="373" y="473" type="line" smooth="yes"/>
      <point x="373" y="521"/>
      <point x="371" y="552"/>
      <point x="420" y="557" type="curve" smooth="yes"/>
    </contour>
  </outline>
</glyph>
<glyph name="degree" format="1">
  <advance width="405"/>
  <unicode hex="00B0"/>
  <outline>
    <contour>
      <point x="119" y="716"/>
      <point x="47" y="647"/>
      <point x="47" y="561" type="curve" smooth="yes"/>
      <point x="47" y="474"/>
      <point x="107" y="404"/>
      <point x="201" y="404" type="curve" smooth="yes"/>
      <point x="286" y="404"/>
      <point x="358" y="474"/>
      <point x="358" y="561" type="curve" smooth="yes"/>
      <point x="358" y="647"/>
      <point x="298" y="716"/>
      <point x="204" y="716" type="curve" smooth="yes"/>
    </contour>
    <contour>
      <point x="258" y="667"/>
      <point x="295" y="615"/>
      <point x="295" y="561" type="curve" smooth="yes"/>
      <point x="295" y="505"/>
      <point x="258" y="456"/>
      <point x="203" y="456" type="curve" smooth="yes"/>
      <point x="147" y="456"/>
      <point x="110" y="505"/>
      <point x="110" y="561" type="curve" smooth="yes"/>
      <point x="110" y="615"/>
      <point x="147" y="667"/>
      <point x="202" y="667" type="curve" smooth="yes"/>
    </contour>
  </outline>
</glyph>
<glyph name="cedilla" format="1">
  <advance width="292"/>
  <unicode hex="00B8"/>
  <outline>
    <contour>
      <point x="83" y="8" type="line"/>
      <point x="54" y="-100" type="line"/>
      <point x="88" y="-116" type="line"/>
      <point x="116" y="-97"/>
      <point x="165" y="-91"/>
      <point x="165" y="-131" type="curve" smooth="yes"/>
      <point x="165" y="-170"/>
      <point x="113" y="-195"/>
      <point x="45" y="-208" type="curve"/>
      <point x="51" y="-241" type="line"/>
      <point x="119" y="-231"/>
      <point x="247" y="-204"/>
      <point x="247" y="-123" type="curve" smooth="yes"/>
      <point x="247" y="-83"/>
      <point x="221" y="-57"/>
      <point x="180" y="-57" type="curve" smooth="yes"/>
      <point x="157" y="-57"/>
      <point x="131" y="-63"/>
      <point x="112" y="-74" type="curve"/>
      <point x="139" y="8" type="line"/>
    </contour>
    <contour>
      <point x="146" y="0" type="move" name="_bottom"/>
    </contour>
  </outline>
</glyph>
<glyph name="guillemotright" format="1">
  <advance width="530"/>
  <unicode hex="00BB"/>
  <outline>
    <contour>
      <point x="195" y="517" type="line"/>
      <point x="390" y="279" type="line"/>
      <point x="390" y="277" type="line"/>
      <point x="193" y="24" type="line"/>
      <point x="224" y="-7" type="line"/>
      <point x="498" y="273" type="line"/>
      <point x="498" y="277" type="line"/>
      <point x="227" y="548" type="line"/>
    </contour>
    <contour>
      <point x="57" y="435" type="line"/>
      <point x="176" y="271" type="line"/>
      <point x="176" y="269" type="line"/>
      <point x="55" y="106" type="line"/>
      <point x="87" y="77" type="line"/>
      <point x="285" y="271" type="line"/>
      <point x="285" y="274" type="line"/>
      <point x="89" y="464" type="line"/>
    </contour>
  </outline>
</glyph>
<glyph name="AE" format="1">
  <advance width="949"/>
  <unicode hex="00C6"/>
  <outline>
    <contour>
      <point x="362" y="700" type="line"/>
      <point x="362" y="656" type="line"/>
      <point x="452" y="660" type="line"/>
      <point x="452" y="660" type="line"/>
      <point x="91" y="125" type="line" smooth="yes"/>
      <point x="64" y="85"/>
      <point x="32" y="33"/>
      <point x="-21" y="33" type="curve"/>
      <point x="-21" y="0" type="line"/>
      <point x="166" y="0" type="line"/>
      <point x="166" y="44" type="line"/>
      <point x="90" y="40" type="line"/>
      <point x="208" y="216" type="line"/>
      <point x="451" y="221" type="line"/>
      <point x="451" y="130" type="line" smooth="yes"/>
      <point x="451" y="69"/>
      <point x="442" y="40"/>
      <point x="390" y="36" type="curve"/>
      <point x="382" y="36" type="line"/>
      <point x="382" y="0" type="line"/>
      <point x="898" y="0" type="line"/>
      <point x="904" y="195" type="line"/>
      <point x="870" y="195" type="line"/>
      <point x="870" y="79"/>
      <point x="817" y="36"/>
      <point x="732" y="37" type="curve" smooth="yes"/>
      <point x="535" y="40" type="line"/>
      <point x="537" y="57"/>
      <point x="538" y="82"/>
      <point x="538" y="118" type="curve" smooth="yes"/>
      <point x="538" y="343" type="line"/>
      <point x="613" y="347" type="line"/>
      <point x="696" y="347"/>
      <point x="730" y="347"/>
      <point x="730" y="259" type="curve"/>
      <point x="763" y="259" type="line"/>
      <point x="763" y="477" type="line"/>
      <point x="730" y="477" type="line"/>
      <point x="730" y="389"/>
      <point x="696" y="383"/>
      <point x="612" y="383" type="curve" smooth="yes"/>
      <point x="538" y="383" type="line"/>
      <point x="538" y="544" type="line" smooth="yes"/>
      <point x="538" y="625"/>
      <point x="539" y="661"/>
      <point x="614" y="663" type="curve" smooth="yes"/>
      <point x="700" y="665" type="line" smooth="yes"/>
      <point x="775" y="667"/>
      <point x="835" y="643"/>
      <point x="835" y="525" type="curve"/>
      <point x="868" y="525" type="line"/>
      <point x="863" y="700" type="line"/>
    </contour>
    <contour>
      <point x="451" y="259" type="line"/>
      <point x="236" y="259" type="line"/>
      <point x="451" y="582" type="line"/>
    </contour>
  </outline>
</glyph>
<glyph name="Eth" format="1">
  <advance width="746"/>
  <unicode hex="00D0"/>
  <outline>
    <contour>
      <point x="19" y="377" type="line"/>
      <point x="19" y="335" type="line"/>
      <point x="393" y="335" type="line"/>
      <point x="393" y="377" type="line"/>
    </contour>
    <component base="D" xOffset="1"/>
  </outline>
</glyph>
<glyph name="icircumflex" format="1">
  <advance width="281"/>
  <unicode hex="00EE"/>
  <outline>
    <contour>
      <point x="144" y="778" type="line"/>
      <point x="0" y="619" type="line"/>
      <point x="25" y="590" type="line"/>
      <point x="139" y="687" type="line"/>
      <point x="141" y="687" type="line"/>
      <point x="253" y="583" type="line"/>
      <point x="280" y="615" type="line"/>
      <point x="146" y="778" type="line"/>
    </contour>
    <component base="dotlessi"/>
  </outline>
</glyph>
<glyph name="oslash" format="1">
  <advance width="585"/>
  <unicode hex="00F8"/>
  <outline>
    <contour>
      <point x="80" y="-48" type="line"/>
      <point x="117" y="-75" type="line"/>
      <point x="513" y="534" type="line"/>
      <point x="466" y="565" type="line"/>
    </contour>
    <component base="o"/>
  </outline>
</glyph>
<glyph name="dcroat" format="1">
  <advance width="598"/>
  <unicode hex="0111"/>
  <outline>
    <contour>
      <point x="255" y="628" type="line"/>
      <point x="255" y="583" type="line"/>
      <point x="579" y="586" type="line"/>
      <point x="579" y="628" type="line"/>
    </contour>
    <component base="d"/>
  </outline>
</glyph>
<glyph name="circumflex" format="1">
  <advance width="400"/>
  <unicode hex="02C6"/>
  <outline>
    <contour>
      <point x="204" y="778" type="line"/>
      <point x="45" y="619" type="line"/>
      <point x="70" y="590" type="line"/>
      <point x="199" y="692" type="line"/>
      <point x="201" y="692" type="line"/>
      <point x="328" y="583" type="line"/>
      <point x="355" y="615" type="line"/>
      <point x="206" y="778" type="line"/>
    </contour>
    <contour>
      <point x="200" y="500" type="move" name="_top"/>
    </contour>
  </outline>
</glyph>
<glyph name="ogonek" format="1">
  <advance width="315"/>
  <unicode hex="02DB"/>
  <outline>
    <contour>
      <point x="156" y="-3"/>
      <point x="45" y="-71"/>
      <point x="45" y="-157" type="curve" smooth="yes"/>
      <point x="45" y="-217"/>
      <point x="87" y="-259"/>
      <point x="151" y="-259" type="curve" smooth="yes"/>
      <point x="199" y="-259"/>
      <point x="244" y="-228"/>
      <point x="270" y="-196" type="curve"/>
      <point x="253" y="-178" type="line"/>
      <point x="234" y="-194"/>
      <point x="212" y="-206"/>
      <point x="188" y="-206" type="curve" smooth="yes"/>
      <point x="155" y="-206"/>
      <point x="126" y="-179"/>
      <point x="126" y="-137" type="curve" smooth="yes"/>
      <point x="126" y="-71"/>
      <point x="187" y="-25"/>
      <point x="258" y="0" type="curve"/>
      <point x="258" y="26" type="line"/>
    </contour>
    <contour>
      <point x="257" y="-0" type="move" name="_ogonek"/>
    </contour>
  </outline>
</glyph>
<glyph name="hungarumlaut" format="1">
  <advance width="389"/>
  <unicode hex="02DD"/>
  <outline>
    <contour>
      <point x="343" y="768"/>
      <point x="314" y="765"/>
      <point x="296" y="746" type="curve" smooth="yes"/>
      <point x="175" y="614" type="line"/>
      <point x="194" y="588" type="line"/>
      <point x="340" y="688" type="line" smooth="yes"/>
      <point x="360" y="702"/>
      <point x="371" y="729"/>
      <point x="357" y="748" type="curve" smooth="yes"/>
    </contour>
    <contour>
      <point x="171" y="781"/>
      <point x="145" y="778"/>
      <point x="128" y="741" type="curve" smooth="yes"/>
      <point x="72" y="613" type="line"/>
      <point x="101" y="595" type="line"/>
      <point x="188" y="702" type="line" smooth="yes"/>
      <point x="212" y="733"/>
      <point x="206" y="757"/>
      <point x="190" y="768" type="curve" smooth="yes"/>
    </contour>
    <contour>
      <point x="181" y="500" type="move" name="_top"/>
    </contour>
  </outline>
</glyph>
<glyph name="commaaccent" format="1">
  <advance width="293"/>
  <unicode hex="0326"/>
  <outline>
    <contour>
      <point x="116" y="-60" type="line"/>
      <point x="134" y="-116"/>
      <point x="137" y="-160"/>
      <point x="94" y="-240" type="curve"/>
      <point x="120" y="-259" type="line"/>
      <point x="170" y="-209"/>
      <point x="201" y="-155"/>
      <point x="201" y="-104" type="curve" smooth="yes"/>
      <point x="201" y="-82"/>
      <point x="196" y="-61"/>
      <point x="185" y="-40" type="curve"/>
    </contour>
    <contour>
      <point x="157" y="0" type="move" name="_bottom"/>
    </contour>
  </outline>
</glyph>
<glyph name="Ushort-cy" format="1">
  <advance width="610"/>
  <unicode hex="040E"/>
  <outline>
    <contour>
      <point x="406" y="898"/>
      <point x="396" y="868"/>
      <point x="396" y="853" type="curve" smooth="yes"/>
      <point x="396" y="840"/>
      <point x="399" y="824"/>
      <point x="407" y="812" type="curve"/>
      <point x="388" y="793"/>
      <point x="366" y="787"/>
      <point x="332" y="787" type="curve" smooth="yes"/>
      <point x="297" y="787"/>
      <point x="275" y="793"/>
      <point x="256" y="812" type="curve"/>
      <point x="264" y="824"/>
      <point x="267" y="840"/>
      <point x="267" y="853" type="curve" smooth="yes"/>
      <point x="267" y="868"/>
      <point x="257" y="898"/>
      <point x="221" y="897" type="curve" smooth="yes"/>
      <point x="193" y="896"/>
      <point x="177" y="872"/>
      <point x="177" y="846" type="curve" smooth="yes"/>
      <point x="177" y="787"/>
      <point x="247" y="750"/>
      <point x="332" y="750" type="curve" smooth="yes"/>
      <point x="416" y="750"/>
      <point x="486" y="787"/>
      <point x="486" y="846" type="curve" smooth="yes"/>
      <point x="486" y="872"/>
      <point x="470" y="896"/>
      <point x="442" y="897" type="curve" smooth="yes"/>
    </contour>
    <component base="U-cy"/>
  </outline>
</glyph>
<glyph name="De-cy" format="1">
  <advance width="691"/>
  <unicode hex="0414"/>
  <outline>
    <contour>
      <point x="134" y="700" type="line"/>
      <point x="134" y="656" type="line"/>
      <point x="207" y="660" type="line"/>
      <point x="489" y="661" type="line"/>
      <point x="489" y="156" type="line" smooth="yes"/>
      <point x="489" y="85"/>
      <point x="495" y="40"/>
      <point x="420" y="40" type="curve"/>
      <point x="420" y="0" type="line"/>
      <point x="645" y="0" type="line"/>
      <point x="645" y="40" type="line"/>
      <point x="573" y="40" type="line"/>
      <point x="575" y="57"/>
      <point x="576" y="83"/>
      <point x="576" y="119" type="curve" smooth="yes"/>
      <point x="576" y="544" type="line" smooth="yes"/>
      <point x="576" y="615"/>
      <point x="570" y="664"/>
      <point x="645" y="667" type="curve"/>
      <point x="645" y="700" type="line"/>
    </contour>
    <contour>
      <point x="27" y="40" type="line"/>
      <point x="27" y="-178" type="line"/>
      <point x="68" y="-178" type="line"/>
      <point x="68" y="-63"/>
      <point x="85" y="0"/>
      <point x="151" y="0" type="curve" smooth="yes"/>
      <point x="535" y="0" type="line" smooth="yes"/>
      <point x="601" y="0"/>
      <point x="618" y="-63"/>
      <point x="618" y="-178" type="curve"/>
      <point x="660" y="-178" type="line"/>
      <point x="660" y="40" type="line"/>
    </contour>
    <contour>
      <point x="232" y="700" type="line"/>
      <point x="226" y="442"/>
      <point x="222" y="212"/>
      <point x="149" y="98" type="curve" smooth="yes"/>
      <point x="126" y="61"/>
      <point x="98" y="40"/>
      <point x="65" y="40" type="curve"/>
      <point x="88" y="0" type="line"/>
      <point x="124" y="0"/>
      <point x="155" y="25"/>
      <point x="182" y="67" type="curve" smooth="yes"/>
      <point x="259" y="193"/>
      <point x="271" y="436"/>
      <point x="282" y="700" type="curve"/>
    </contour>
    <contour>
      <point x="248" y="661" type="line"/>
      <point x="241" y="630" type="line"/>
      <point x="278" y="608" type="line"/>
      <point x="279" y="640"/>
      <point x="298" y="661"/>
      <point x="345" y="661" type="curve"/>
    </contour>
  </outline>
</glyph>
<glyph name="Zhe-cy" format="1">
  <advance width="962"/>
  <unicode hex="0416"/>
  <outline>
    <contour>
      <point x="733" y="291" type="line" smooth="yes"/>
      <point x="708" y="331"/>
      <point x="688" y="353"/>
      <point x="650" y="376" type="curve"/>
      <point x="741" y="532" type="line" smooth="yes"/>
      <point x="805" y="644"/>
      <point x="856" y="660"/>
      <point x="940" y="667" type="curve"/>
      <point x="940" y="700" type="line"/>
      <point x="725" y="700" type="line"/>
      <point x="725" y="659" type="line"/>
      <point x="786" y="661" type="line"/>
      <point x="758" y="639"/>
      <point x="730" y="604"/>
      <point x="715" y="577" type="curve" smooth="yes"/>
      <point x="600" y="380" type="line"/>
      <point x="525" y="380" type="line"/>
      <point x="525" y="544" type="line" smooth="yes"/>
      <point x="525" y="615"/>
      <point x="519" y="664"/>
      <point x="594" y="667" type="curve"/>
      <point x="594" y="700" type="line"/>
      <point x="369" y="700" type="line"/>
      <point x="369" y="656" type="line"/>
      <point x="441" y="660" type="line"/>
      <point x="438" y="640"/>
      <point x="438" y="615"/>
      <point x="438" y="588" type="curve" smooth="yes"/>
      <point x="438" y="380" type="line"/>
      <point x="363" y="380" type="line"/>
      <point x="248" y="577" type="line" smooth="yes"/>
      <point x="232" y="604"/>
      <point x="204" y="639"/>
      <point x="176" y="661" type="curve"/>
      <point x="237" y="659" type="line"/>
      <point x="237" y="700" type="line"/>
      <point x="22" y="700" type="line"/>
      <point x="22" y="667" type="line"/>
      <point x="106" y="660"/>
      <point x="157" y="644"/>
      <point x="222" y="532" type="curve" smooth="yes"/>
      <point x="313" y="376" type="line"/>
      <point x="275" y="353"/>
      <point x="254" y="331"/>
      <point x="229" y="291" type="curve" smooth="yes"/>
      <point x="143" y="149" type="line" smooth="yes"/>
      <point x="83" y="52"/>
      <point x="48" y="33"/>
      <point x="5" y="33" type="curve"/>
      <point x="5" y="0" type="line"/>
      <point x="112" y="0" type="line" smooth="yes"/>
      <point x="132" y="0"/>
      <point x="177" y="34"/>
      <point x="215" y="98" type="curve" smooth="yes"/>
      <point x="313" y="260" type="line" smooth="yes"/>
      <point x="332" y="291"/>
      <point x="348" y="317"/>
      <point x="378" y="341" type="curve"/>
      <point x="438" y="340" type="line"/>
      <point x="438" y="156" type="line" smooth="yes"/>
      <point x="438" y="85"/>
      <point x="444" y="36"/>
      <point x="369" y="33" type="curve"/>
      <point x="369" y="0" type="line"/>
      <point x="594" y="0" type="line"/>
      <point x="594" y="44" type="line"/>
      <point x="521" y="40" type="line"/>
      <point x="524" y="57"/>
      <point x="525" y="83"/>
      <point x="525" y="119" type="curve" smooth="yes"/>
      <point x="525" y="340" type="line"/>
      <point x="584" y="341" type="line"/>
      <point x="615" y="317"/>
      <point x="630" y="291"/>
      <point x="649" y="260" type="curve" smooth="yes"/>
      <point x="749" y="98" type="line" smooth="yes"/>
      <point x="789" y="35"/>
      <point x="835" y="0"/>
      <point x="855" y="0" type="curve" smooth="yes"/>
      <point x="958" y="0" type="line"/>
      <point x="958" y="33" type="line"/>
      <point x="915" y="33"/>
      <point x="880" y="52"/>
      <point x="820" y="149" type="curve" smooth="yes"/>
    </contour>
  </outline>
</glyph>
<glyph name="Tse-cy" format="1">
  <advance width="742"/>
  <unicode hex="0426"/>
  <outline>
    <contour>
      <point x="696" y="44" type="line"/>
      <point x="589" y="0" type="line"/>
      <point x="655" y="0"/>
      <point x="669" y="-78"/>
      <point x="669" y="-178" type="curve"/>
      <point x="710" y="-178" type="line"/>
      <point x="710" y="45" type="line"/>
    </contour>
    <contour>
      <point x="696" y="700" type="line"/>
      <point x="471" y="700" type="line"/>
      <point x="471" y="656" type="line"/>
      <point x="543" y="660" type="line"/>
      <point x="541" y="643"/>
      <point x="540" y="617"/>
      <point x="540" y="581" type="curve" smooth="yes"/>
      <point x="540" y="123" type="line" smooth="yes"/>
      <point x="539" y="76"/>
      <point x="530" y="45"/>
      <point x="475" y="43" type="curve" smooth="yes"/>
      <point x="211" y="40" type="line"/>
      <point x="211" y="544" type="line" smooth="yes"/>
      <point x="211" y="615"/>
      <point x="205" y="664"/>
      <point x="280" y="667" type="curve"/>
      <point x="280" y="700" type="line"/>
      <point x="55" y="700" type="line"/>
      <point x="55" y="656" type="line"/>
      <point x="127" y="660" type="line"/>
      <point x="125" y="643"/>
      <point x="124" y="617"/>
      <point x="124" y="581" type="curve" smooth="yes"/>
      <point x="124" y="156" type="line" smooth="yes"/>
      <point x="124" y="85"/>
      <point x="130" y="36"/>
      <point x="55" y="33" type="curve"/>
      <point x="55" y="0" type="line"/>
      <point x="696" y="0" type="line"/>
      <point x="696" y="44" type="line"/>
      <point x="624" y="40" type="line"/>
      <point x="626" y="60"/>
      <point x="627" y="85"/>
      <point x="627" y="112" type="curve" smooth="yes"/>
      <point x="627" y="544" type="line" smooth="yes"/>
      <point x="627" y="615"/>
      <point x="621" y="664"/>
      <point x="696" y="667" type="curve"/>
    </contour>
  </outline>
</glyph>
<glyph name="Shcha-cy" format="1">
  <advance width="1001"/>
  <unicode hex="0429"/>
  <outline>
    <contour>
      <point x="955" y="44" type="line"/>
      <point x="848" y="0" type="line"/>
      <point x="914" y="0"/>
      <point x="928" y="-78"/>
      <point x="928" y="-178" type="curve"/>
      <point x="969" y="-178" type="line"/>
      <point x="969" y="45" type="line"/>
    </contour>
    <component base="Sha-cy"/>
  </outline>
</glyph>
<glyph name="Hardsign-cy" format="1">
  <advance width="717"/>
  <unicode hex="042A"/>
  <outline>
    <contour>
      <point x="243" y="700" type="line"/>
      <point x="245" y="660" type="line"/>
      <point x="242" y="640"/>
      <point x="241" y="615"/>
      <point x="241" y="588" type="curve" smooth="yes"/>
      <point x="241" y="156" type="line" smooth="yes"/>
      <point x="242" y="83"/>
      <point x="246" y="35"/>
      <point x="172" y="33" type="curve"/>
      <point x="172" y="0" type="line"/>
      <point x="459" y="0" type="line" smooth="yes"/>
      <point x="590" y="0"/>
      <point x="686" y="73"/>
      <point x="686" y="213" type="curve" smooth="yes"/>
      <point x="686" y="331"/>
      <point x="614" y="416"/>
      <point x="404" y="410" type="curve" smooth="yes"/>
      <point x="329" y="407" type="line"/>
      <point x="329" y="544" type="line" smooth="yes"/>
      <point x="329" y="615"/>
      <point x="322" y="664"/>
      <point x="397" y="667" type="curve"/>
      <point x="397" y="700" type="line"/>
    </contour>
    <contour>
      <point x="508" y="372"/>
      <point x="589" y="336"/>
      <point x="589" y="209" type="curve" smooth="yes"/>
      <point x="589" y="90"/>
      <point x="520" y="38"/>
      <point x="426" y="38" type="curve" smooth="yes"/>
      <point x="414" y="38"/>
      <point x="356" y="37"/>
      <point x="325" y="40" type="curve"/>
      <point x="328" y="57"/>
      <point x="329" y="82"/>
      <point x="329" y="118" type="curve" smooth="yes"/>
      <point x="329" y="369" type="line"/>
      <point x="360" y="371"/>
      <point x="387" y="372"/>
      <point x="426" y="372" type="curve" smooth="yes"/>
    </contour>
    <contour>
      <point x="28" y="700" type="line"/>
      <point x="22" y="489" type="line"/>
      <point x="59" y="489" type="line"/>
      <point x="59" y="607"/>
      <point x="90" y="659"/>
      <point x="174" y="659" type="curve" smooth="yes"/>
      <point x="280" y="660" type="line"/>
      <point x="280" y="700" type="line"/>
    </contour>
  </outline>
</glyph>
<glyph name="ve-cy" format="1">
  <advance width="521"/>
  <unicode hex="0432"/>
  <outline>
    <contour>
      <point x="206" y="501"/>
      <point x="98" y="500"/>
      <point x="45" y="500" type="curve"/>
      <point x="45" y="459" type="line"/>
      <point x="108" y="462" type="line"/>
      <point x="105" y="446"/>
      <point x="104" y="428"/>
      <point x="104" y="404" type="curve" smooth="yes"/>
      <point x="104" y="115" type="line" smooth="yes"/>
      <point x="104" y="63"/>
      <point x="93" y="31"/>
      <point x="44" y="30" type="curve"/>
      <point x="44" y="0" type="line"/>
      <point x="321" y="0" type="line" smooth="yes"/>
      <point x="411" y="0"/>
      <point x="492" y="52"/>
      <point x="492" y="142" type="curve" smooth="yes"/>
      <point x="492" y="210"/>
      <point x="444" y="259"/>
      <point x="354" y="263" type="curve"/>
      <point x="354" y="264" type="line"/>
      <point x="430" y="281"/>
      <point x="464" y="332"/>
      <point x="465" y="386" type="curve" smooth="yes"/>
      <point x="466" y="463"/>
      <point x="400" y="501"/>
      <point x="307" y="501" type="curve" smooth="yes"/>
    </contour>
    <contour>
      <point x="338" y="237"/>
      <point x="396" y="209"/>
      <point x="396" y="139" type="curve" smooth="yes"/>
      <point x="396" y="69"/>
      <point x="347" y="40"/>
      <point x="273" y="40" type="curve" smooth="yes"/>
      <point x="264" y="40"/>
      <point x="210" y="39"/>
      <point x="188" y="41" type="curve"/>
      <point x="189" y="53"/>
      <point x="190" y="71"/>
      <point x="190" y="97" type="curve" smooth="yes"/>
      <point x="190" y="235" type="line"/>
      <point x="212" y="236"/>
      <point x="245" y="237"/>
      <point x="273" y="237" type="curve" smooth="yes"/>
    </contour>
    <contour>
      <point x="323" y="465"/>
      <point x="372" y="450"/>
      <point x="373" y="381" type="curve" smooth="yes"/>
      <point x="374" y="332"/>
      <point x="347" y="276"/>
      <point x="265" y="274" type="curve" smooth="yes"/>
      <point x="190" y="273" type="line"/>
      <point x="190" y="396" type="line" smooth="yes"/>
      <point x="190" y="453"/>
      <point x="221" y="465"/>
      <point x="269" y="465" type="curve" smooth="yes"/>
    </contour>
  </outline>
</glyph>
<glyph name="shcha-cy" format="1">
  <advance width="838"/>
  <unicode hex="0449"/>
  <outline>
    <contour>
      <point x="784" y="41" type="line"/>
      <point x="690" y="0" type="line"/>
      <point x="756" y="0"/>
      <point x="773" y="-78"/>
      <point x="773" y="-178" type="curve"/>
      <point x="811" y="-178" type="line"/>
      <point x="811" y="42" type="line"/>
    </contour>
    <component base="sha-cy"/>
  </outline>
</glyph>
<glyph name="yeru-cy" format="1">
  <advance width="742"/>
  <unicode hex="044B"/>
  <outline>
    <contour>
      <point x="45" y="500" type="line"/>
      <point x="45" y="459" type="line"/>
      <point x="108" y="462" type="line"/>
      <point x="104" y="439"/>
      <point x="104" y="421"/>
      <point x="104" y="394" type="curve" smooth="yes"/>
      <point x="104" y="115" type="line" smooth="yes"/>
      <point x="104" y="63"/>
      <point x="93" y="31"/>
      <point x="44" y="30" type="curve"/>
      <point x="44" y="0" type="line"/>
      <point x="291" y="0" type="line" smooth="yes"/>
      <point x="378" y="0"/>
      <point x="454" y="52"/>
      <point x="454" y="148" type="curve" smooth="yes"/>
      <point x="454" y="228"/>
      <point x="402" y="296"/>
      <point x="241" y="292" type="curve" smooth="yes"/>
      <point x="190" y="290" type="line"/>
      <point x="190" y="382" type="line" smooth="yes"/>
      <point x="190" y="420"/>
      <point x="188" y="470"/>
      <point x="249" y="470" type="curve"/>
      <point x="249" y="500" type="line"/>
    </contour>
    <contour>
      <point x="324" y="254"/>
      <point x="366" y="214"/>
      <point x="366" y="146" type="curve" smooth="yes"/>
      <point x="366" y="69"/>
      <point x="316" y="40"/>
      <point x="254" y="40" type="curve" smooth="yes"/>
      <point x="231" y="40"/>
      <point x="210" y="40"/>
      <point x="188" y="41" type="curve"/>
      <point x="189" y="53"/>
      <point x="190" y="71"/>
      <point x="190" y="97" type="curve" smooth="yes"/>
      <point x="190" y="252" type="line"/>
      <point x="212" y="253"/>
      <point x="226" y="254"/>
      <point x="254" y="254" type="curve" smooth="yes"/>
    </contour>
    <contour>
      <point x="494" y="500" type="line"/>
      <point x="494" y="459" type="line"/>
      <point x="557" y="462" type="line"/>
      <point x="553" y="439"/>
      <point x="553" y="421"/>
      <point x="553" y="394" type="curve" smooth="yes"/>
      <point x="552" y="152" type="line" smooth="yes"/>
      <point x="551" y="80"/>
      <point x="553" y="30"/>
      <point x="492" y="30" type="curve"/>
      <point x="492" y="0" type="line"/>
      <point x="696" y="0" type="line"/>
      <point x="696" y="41" type="line"/>
      <point x="633" y="38" type="line"/>
      <point x="637" y="61"/>
      <point x="637" y="79"/>
      <point x="637" y="106" type="curve" smooth="yes"/>
      <point x="639" y="348" type="line" smooth="yes"/>
      <point x="639" y="420"/>
      <point x="637" y="470"/>
      <point x="698" y="470" type="curve"/>
      <point x="698" y="500" type="line"/>
    </contour>
  </outline>
</glyph>
<glyph name="ia-cy" format="1">
  <advance width="544"/>
  <unicode hex="044F"/>
  <outline>
    <contour>
      <point x="247" y="500" type="line" smooth="yes"/>
      <point x="160" y="500"/>
      <point x="83" y="448"/>
      <point x="83" y="352" type="curve" smooth="yes"/>
      <point x="83" y="272"/>
      <point x="135" y="208"/>
      <point x="297" y="208" type="curve"/>
      <point x="297" y="199" type="line"/>
      <point x="354" y="200" type="line"/>
      <point x="354" y="119" type="line" smooth="yes"/>
      <point x="354" y="71"/>
      <point x="347" y="30"/>
      <point x="295" y="30" type="curve"/>
      <point x="295" y="0" type="line"/>
      <point x="499" y="0" type="line"/>
      <point x="499" y="41" type="line"/>
      <point x="436" y="38" type="line"/>
      <point x="440" y="61"/>
      <point x="440" y="79"/>
      <point x="440" y="106" type="curve" smooth="yes"/>
      <point x="440" y="385" type="line" smooth="yes"/>
      <point x="440" y="438"/>
      <point x="451" y="469"/>
      <point x="500" y="470" type="curve"/>
      <point x="500" y="500" type="line"/>
    </contour>
    <contour>
      <point x="236" y="217" type="line"/>
      <point x="210" y="213"/>
      <point x="193" y="206"/>
      <point x="174" y="183" type="curve" smooth="yes"/>
      <point x="138" y="138" type="line" smooth="yes"/>
      <point x="82" y="68"/>
      <point x="63" y="30"/>
      <point x="17" y="30" type="curve"/>
      <point x="17" y="0" type="line"/>
      <point x="96" y="0" type="line" smooth="yes"/>
      <point x="132" y="0"/>
      <point x="172" y="47"/>
      <point x="206" y="94" type="curve" smooth="yes"/>
      <point x="224" y="119"/>
      <point x="259" y="174"/>
      <point x="285" y="199" type="curve"/>
      <point x="333" y="200" type="line"/>
      <point x="333" y="220" type="line"/>
    </contour>
    <contour>
      <point x="292" y="460"/>
      <point x="334" y="461"/>
      <point x="356" y="459" type="curve"/>
      <point x="355" y="447"/>
      <point x="354" y="429"/>
      <point x="354" y="403" type="curve" smooth="yes"/>
      <point x="354" y="238" type="line"/>
      <point x="332" y="237"/>
      <point x="312" y="236"/>
      <point x="283" y="236" type="curve" smooth="yes"/>
      <point x="213" y="236"/>
      <point x="172" y="289"/>
      <point x="172" y="354" type="curve" smooth="yes"/>
      <point x="172" y="431"/>
      <point x="222" y="460"/>
      <point x="283" y="460" type="curve" smooth="yes"/>
    </contour>
  </outline>
</glyph>
<glyph name="dje-cy" format="1">
  <advance width="593"/>
  <unicode hex="0452"/>
  <outline>
    <contour>
      <point x="151" y="755" type="line"/>
      <point x="136" y="741"/>
      <point x="114" y="728"/>
      <point x="26" y="728" type="curve"/>
      <point x="26" y="686" type="line"/>
      <point x="97" y="690" type="line"/>
      <point x="94" y="663"/>
      <point x="94" y="646"/>
      <point x="94" y="625" type="curve" smooth="yes"/>
      <point x="94" y="152" type="line" smooth="yes"/>
      <point x="94" y="80"/>
      <point x="95" y="30"/>
      <point x="34" y="30" type="curve"/>
      <point x="34" y="0" type="line"/>
      <point x="238" y="0" type="line"/>
      <point x="238" y="41" type="line"/>
      <point x="175" y="38" type="line"/>
      <point x="179" y="61"/>
      <point x="180" y="79"/>
      <point x="180" y="106" type="curve" smooth="yes"/>
      <point x="180" y="401" type="line"/>
      <point x="209" y="437"/>
      <point x="261" y="462"/>
      <point x="310" y="463" type="curve" smooth="yes"/>
      <point x="392" y="465"/>
      <point x="424" y="394"/>
      <point x="424" y="255" type="curve" smooth="yes"/>
      <point x="424" y="4" type="line" smooth="yes"/>
      <point x="424" y="-179"/>
      <point x="399" y="-221"/>
      <point x="361" y="-216" type="curve"/>
      <point x="366" y="-208"/>
      <point x="367" y="-203"/>
      <point x="367" y="-194" type="curve" smooth="yes"/>
      <point x="367" y="-178"/>
      <point x="356" y="-151"/>
      <point x="324" y="-152" type="curve" smooth="yes"/>
      <point x="297" y="-152"/>
      <point x="281" y="-175"/>
      <point x="281" y="-199" type="curve" smooth="yes"/>
      <point x="281" y="-228"/>
      <point x="305" y="-255"/>
      <point x="360" y="-255" type="curve" smooth="yes"/>
      <point x="437" y="-255"/>
      <point x="510" y="-200"/>
      <point x="510" y="14" type="curve" smooth="yes"/>
      <point x="510" y="256" type="line" smooth="yes"/>
      <point x="510" y="448"/>
      <point x="466" y="516"/>
      <point x="344" y="516" type="curve" smooth="yes"/>
      <point x="287" y="516"/>
      <point x="224" y="487"/>
      <point x="180" y="450" type="curve"/>
      <point x="180" y="755" type="line"/>
    </contour>
    <contour>
      <point x="21" y="625" type="line"/>
      <point x="21" y="574" type="line"/>
      <point x="384" y="578" type="line"/>
      <point x="384" y="625" type="line"/>
    </contour>
  </outline>
</glyph>
<glyph name="anusvara-deva" format="1">
  <advance width="0"/>
  <unicode hex="0902"/>
  <outline>
    <contour>
      <point x="-77" y="832" type="line"/>
      <point x="-77" y="925" type="line"/>
      <point x="-177" y="925" type="line"/>
      <point x="-177" y="832" type="line"/>
    </contour>
    <contour>
      <point x="-133" y="666" type="move" name="_mark0"/>
    </contour>
  </outline>
</glyph>
<glyph name="a-deva" format="1">
  <advance width="768"/>
  <unicode hex="0905"/>
  <outline>
    <contour>
      <point x="410" y="627" type="line"/>
      <point x="410" y="583" type="line"/>
      <point x="528" y="583" type="line"/>
      <point x="528" y="0" type="line"/>
      <point x="615" y="0" type="line"/>
      <point x="615" y="583" type="line"/>
      <point x="743" y="583" type="line"/>
      <point x="743" y="627" type="line"/>
    </contour>
    <contour>
      <point x="239" y="356" type="move"/>
      <point x="360" y="351"/>
      <point x="399" y="281"/>
      <point x="399" y="221" type="curve" smooth="yes"/>
      <point x="399" y="143"/>
      <point x="336" y="110"/>
      <point x="272" y="110" type="curve" smooth="yes"/>
      <point x="175" y="110"/>
      <point x="109" y="165"/>
      <point x="28" y="325" type="curve"/>
    </contour>
    <contour>
      <point x="201" y="342" type="move"/>
      <point x="306" y="377"/>
      <point x="352" y="418"/>
      <point x="352" y="490" type="curve" smooth="yes"/>
      <point x="352" y="566"/>
      <point x="306" y="600"/>
      <point x="247" y="600" type="curve" smooth="yes"/>
      <point x="197" y="600"/>
      <point x="141" y="582"/>
      <point x="101" y="532" type="curve" smooth="yes"/>
    </contour>
    <contour>
      <point x="395" y="252" type="move"/>
      <point x="448" y="257"/>
      <point x="512" y="268"/>
      <point x="560" y="297" type="curve"/>
    </contour>
    <contour>
      <point x="636" y="664" type="move" name="mark0"/>
    </contour>
  </outline>
</glyph>
<glyph name="i-deva" format="1">
  <advance width="503"/>
  <unicode hex="0907"/>
  <outline>
    <contour>
      <point x="328" y="606" type="line"/>
      <point x="328" y="499" type="line"/>
      <point x="162" y="499" type="line" smooth="yes"/>
      <point x="102" y="499"/>
      <point x="53" y="458"/>
      <point x="53" y="406" type="curve" smooth="yes"/>
      <point x="53" y="378"/>
      <point x="75" y="342"/>
      <point x="119" y="298" type="curve" smooth="yes"/>
      <point x="163" y="255"/>
      <point x="199" y="233"/>
      <point x="228" y="233" type="curve" smooth="yes"/>
      <point x="243" y="233"/>
      <point x="265" y="238"/>
      <point x="294" y="249" type="curve" smooth="yes"/>
      <point x="323" y="260"/>
      <point x="346" y="266"/>
      <point x="361" y="266" type="curve" smooth="yes"/>
      <point x="376" y="266"/>
      <point x="387" y="244"/>
      <point x="387" y="220" type="curve" smooth="yes"/>
      <point x="387" y="180"/>
      <point x="373" y="145"/>
      <point x="346" y="116" type="curve" smooth="yes"/>
      <point x="319" y="87"/>
      <point x="286" y="73"/>
      <point x="248" y="73" type="curve"/>
      <point x="212" y="136"/>
      <point x="159" y="173"/>
      <point x="108" y="173" type="curve" smooth="yes"/>
      <point x="71" y="173"/>
      <point x="41" y="143"/>
      <point x="41" y="107" type="curve" smooth="yes"/>
      <point x="41" y="83"/>
      <point x="56" y="62"/>
      <point x="87" y="45" type="curve" smooth="yes"/>
      <point x="118" y="28"/>
      <point x="156" y="20"/>
      <point x="201" y="20" type="curve"/>
      <point x="245" y="-43"/>
      <point x="318" y="-105"/>
      <point x="414" y="-160" type="curve"/>
      <point x="447" y="-107" type="line"/>
      <point x="371" y="-71"/>
      <point x="314" y="-28"/>
      <point x="281" y="20" type="curve"/>
      <point x="329" y="20"/>
      <point x="370" y="39"/>
      <point x="403" y="78" type="curve" smooth="yes"/>
      <point x="437" y="117"/>
      <point x="454" y="165"/>
      <point x="454" y="220" type="curve" smooth="yes"/>
      <point x="454" y="251"/>
      <point x="445" y="277"/>
      <point x="426" y="299" type="curve"/>
      <point x="408" y="322"/>
      <point x="386" y="333"/>
      <point x="361" y="333" type="curve" smooth="yes"/>
      <point x="346" y="333"/>
      <point x="323" y="327"/>
      <point x="294" y="316" type="curve" smooth="yes"/>
      <point x="265" y="305"/>
      <point x="243" y="300"/>
      <point x="228" y="300" type="curve" smooth="yes"/>
      <point x="213" y="300"/>
      <point x="192" y="314"/>
      <point x="163" y="342" type="curve"/>
      <point x="135" y="371"/>
      <point x="121" y="392"/>
      <point x="121" y="406" type="curve" smooth="yes"/>
      <point x="121" y="421"/>
      <point x="140" y="433"/>
      <point x="161" y="433" type="curve" smooth="yes"/>
      <point x="401" y="433" type="line"/>
      <point x="401" y="606" type="line"/>
      <point x="517" y="606" type="line"/>
      <point x="517" y="666" type="line"/>
      <point x="-13" y="666" type="line"/>
      <point x="-13" y="606" type="line"/>
    </contour>
    <contour>
      <point x="377" y="664" type="move" name="mark0"/>
    </contour>
  </outline>
</glyph>
<glyph name="rVocalic-deva" format="1">
  <advance width="864"/>
  <unicode hex="090B"/>
  <outline>
    <contour>
      <point x="153" y="493"/>
      <point x="87" y="464"/>
      <point x="12" y="413" type="curve"/>
      <point x="52" y="366" type="line"/>
      <point x="115" y="409"/>
      <point x="168" y="433"/>
      <point x="205" y="433" type="curve" smooth="yes"/>
      <point x="228" y="433"/>
      <point x="264" y="412"/>
      <point x="305" y="373" type="curve"/>
      <point x="378" y="300" type="line"/>
      <point x="119" y="180" type="line"/>
      <point x="158" y="127" type="line"/>
      <point x="431" y="253" type="line"/>
      <point x="431" y="0" type="line"/>
      <point x="498" y="0" type="line"/>
      <point x="498" y="306" type="line"/>
      <point x="514" y="298"/>
      <point x="538" y="293"/>
      <point x="571" y="293" type="curve" smooth="yes"/>
      <point x="596" y="293"/>
      <point x="618" y="298"/>
      <point x="638" y="306" type="curve"/>
      <point x="714" y="242"/>
      <point x="758" y="172"/>
      <point x="758" y="113" type="curve" smooth="yes"/>
      <point x="758" y="80"/>
      <point x="731" y="53"/>
      <point x="698" y="53" type="curve" smooth="yes"/>
      <point x="669" y="53"/>
      <point x="643" y="78"/>
      <point x="638" y="113" type="curve"/>
      <point x="578" y="87" type="line"/>
      <point x="594" y="28"/>
      <point x="642" y="-13"/>
      <point x="698" y="-13" type="curve" smooth="yes"/>
      <point x="733" y="-13"/>
      <point x="762" y="-1"/>
      <point x="787" y="24" type="curve" smooth="yes"/>
      <point x="812" y="49"/>
      <point x="824" y="78"/>
      <point x="824" y="113" type="curve" smooth="yes"/>
      <point x="824" y="177"/>
      <point x="781" y="257"/>
      <point x="704" y="333" type="curve"/>
      <point x="729" y="344"/>
      <point x="744" y="373"/>
      <point x="744" y="406" type="curve" smooth="yes"/>
      <point x="744" y="443"/>
      <point x="712" y="473"/>
      <point x="671" y="473" type="curve" smooth="yes"/>
      <point x="630" y="473"/>
      <point x="598" y="450"/>
      <point x="598" y="419" type="curve" smooth="yes"/>
      <point x="598" y="398"/>
      <point x="606" y="377"/>
      <point x="618" y="360" type="curve"/>
      <point x="611" y="356"/>
      <point x="595" y="353"/>
      <point x="571" y="353" type="curve" smooth="yes"/>
      <point x="542" y="353"/>
      <point x="518" y="358"/>
      <point x="498" y="366" type="curve"/>
      <point x="498" y="606" type="line"/>
      <point x="878" y="606" type="line"/>
      <point x="878" y="666" type="line"/>
      <point x="-13" y="666" type="line"/>
      <point x="-13" y="606" type="line"/>
      <point x="431" y="606" type="line"/>
      <point x="431" y="326" type="line"/>
      <point x="325" y="433" type="line" smooth="yes"/>
      <point x="286" y="472"/>
      <point x="244" y="493"/>
      <point x="205" y="493" type="curve" smooth="yes"/>
    </contour>
    <contour>
      <point x="460" y="664" type="move" name="mark0"/>
    </contour>
  </outline>
</glyph>
<glyph name="eCandra-deva" format="1">
  <advance width="490"/>
  <unicode hex="090D"/>
  <outline>
    <contour>
      <point x="297" y="752"/>
      <point x="340" y="769"/>
      <point x="377" y="803" type="curve" smooth="yes"/>
      <point x="415" y="837"/>
      <point x="438" y="880"/>
      <point x="447" y="932" type="curve"/>
      <point x="381" y="932" type="line"/>
      <point x="369" y="860"/>
      <point x="312" y="806"/>
      <point x="248" y="806" type="curve" smooth="yes"/>
      <point x="184" y="806"/>
      <point x="127" y="860"/>
      <point x="115" y="932" type="curve"/>
      <point x="48" y="932" type="line"/>
      <point x="57" y="880"/>
      <point x="80" y="837"/>
      <point x="117" y="803" type="curve" smooth="yes"/>
      <point x="155" y="769"/>
      <point x="199" y="752"/>
      <point x="248" y="752" type="curve" smooth="yes"/>
    </contour>
    <contour>
      <point x="368" y="-127" type="line"/>
      <point x="415" y="-108"/>
      <point x="447" y="-73"/>
      <point x="447" y="-33" type="curve" smooth="yes"/>
      <point x="447" y="-10"/>
      <point x="427" y="18"/>
      <point x="394" y="47" type="curve"/>
      <point x="161" y="266" type="line"/>
      <point x="144" y="285"/>
      <point x="134" y="314"/>
      <point x="134" y="353" type="curve" smooth="yes"/>
      <point x="134" y="606" type="line"/>
      <point x="354" y="606" type="line"/>
      <point x="354" y="413" type="line" smooth="yes"/>
      <point x="354" y="364"/>
      <point x="333" y="322"/>
      <point x="301" y="313" type="curve"/>
      <point x="341" y="266" type="line"/>
      <point x="393" y="281"/>
      <point x="427" y="337"/>
      <point x="427" y="406" type="curve" smooth="yes"/>
      <point x="427" y="606" type="line"/>
      <point x="503" y="606" type="line"/>
      <point x="503" y="666" type="line"/>
      <point x="-13" y="666" type="line"/>
      <point x="-13" y="606" type="line"/>
      <point x="61" y="606" type="line"/>
      <point x="61" y="313" type="line" smooth="yes"/>
      <point x="61" y="292"/>
      <point x="77" y="264"/>
      <point x="101" y="240" type="curve"/>
      <point x="348" y="13" type="line"/>
      <point x="365" y="-4"/>
      <point x="374" y="-21"/>
      <point x="374" y="-33" type="curve" smooth="yes"/>
      <point x="374" y="-54"/>
      <point x="350" y="-75"/>
      <point x="314" y="-80" type="curve"/>
    </contour>
  </outline>
</glyph>
<glyph name="eShort-deva" format="1">
  <advance width="490"/>
  <unicode hex="090E"/>
  <outline>
    <contour>
      <point x="258" y="804"/>
      <point x="289" y="790"/>
      <point x="315" y="762" type="curve" smooth="yes"/>
      <point x="340" y="735"/>
      <point x="353" y="703"/>
      <point x="354" y="666" type="curve"/>
      <point x="-13" y="666" type="line"/>
      <point x="-13" y="606" type="line"/>
      <point x="61" y="606" type="line"/>
      <point x="61" y="313" type="line" smooth="yes"/>
      <point x="61" y="292"/>
      <point x="77" y="264"/>
      <point x="101" y="240" type="curve"/>
      <point x="348" y="13" type="line"/>
      <point x="365" y="-4"/>
      <point x="374" y="-21"/>
      <point x="374" y="-33" type="curve" smooth="yes"/>
      <point x="374" y="-54"/>
      <point x="350" y="-75"/>
      <point x="314" y="-80" type="curve"/>
      <point x="368" y="-127" type="line"/>
      <point x="415" y="-108"/>
      <point x="447" y="-73"/>
      <point x="447" y="-33" type="curve" smooth="yes"/>
      <point x="447" y="-10"/>
      <point x="427" y="18"/>
      <point x="394" y="47" type="curve"/>
      <point x="161" y="266" type="line"/>
      <point x="144" y="285"/>
      <point x="134" y="314"/>
      <point x="134" y="353" type="curve" smooth="yes"/>
      <point x="134" y="606" type="line"/>
      <point x="354" y="606" type="line"/>
      <point x="354" y="413" type="line" smooth="yes"/>
      <point x="354" y="364"/>
      <point x="333" y="322"/>
      <point x="301" y="313" type="curve"/>
      <point x="341" y="266" type="line"/>
      <point x="393" y="281"/>
      <point x="427" y="334"/>
      <point x="427" y="399" type="curve" smooth="yes"/>
      <point x="427" y="606" type="line"/>
      <point x="503" y="606" type="line"/>
      <point x="503" y="666" type="line"/>
      <point x="421" y="666" type="line"/>
      <point x="420" y="719"/>
      <point x="401" y="763"/>
      <point x="362" y="800" type="curve" smooth="yes"/>
      <point x="323" y="838"/>
      <point x="276" y="857"/>
      <point x="221" y="857" type="curve" smooth="yes"/>
      <point x="157" y="857"/>
      <point x="100" y="911"/>
      <point x="88" y="984" type="curve"/>
      <point x="21" y="984" type="line"/>
      <point x="30" y="931"/>
      <point x="54" y="888"/>
      <point x="91" y="854" type="curve"/>
      <point x="129" y="821"/>
      <point x="172" y="804"/>
      <point x="221" y="804" type="curve" smooth="yes"/>
    </contour>
  </outline>
</glyph>
<glyph name="oCandra-deva" format="1">
  <advance width="1042"/>
  <unicode hex="0911"/>
  <outline>
    <contour>
      <point x="523" y="932" type="line"/>
      <point x="533" y="878"/>
      <point x="557" y="833"/>
      <point x="594" y="798" type="curve" smooth="yes"/>
      <point x="632" y="763"/>
      <point x="675" y="746"/>
      <point x="723" y="746" type="curve" smooth="yes"/>
      <point x="771" y="746"/>
      <point x="814" y="763"/>
      <point x="851" y="798" type="curve" smooth="yes"/>
      <point x="889" y="833"/>
      <point x="913" y="878"/>
      <point x="923" y="932" type="curve"/>
      <point x="856" y="932" type="line"/>
      <point x="844" y="860"/>
      <point x="787" y="806"/>
      <point x="723" y="806" type="curve" smooth="yes"/>
      <point x="659" y="806"/>
      <point x="602" y="860"/>
      <point x="590" y="932" type="curve"/>
    </contour>
    <contour>
      <point x="357" y="47"/>
      <point x="396" y="64"/>
      <point x="428" y="99" type="curve" smooth="yes"/>
      <point x="461" y="134"/>
      <point x="477" y="177"/>
      <point x="477" y="226" type="curve" smooth="yes"/>
      <point x="477" y="251"/>
      <point x="467" y="276"/>
      <point x="450" y="293" type="curve"/>
      <point x="467" y="281"/>
      <point x="497" y="273"/>
      <point x="530" y="273" type="curve" smooth="yes"/>
      <point x="557" y="273"/>
      <point x="582" y="281"/>
      <point x="603" y="300" type="curve"/>
      <point x="603" y="0" type="line"/>
      <point x="670" y="0" type="line"/>
      <point x="670" y="606" type="line"/>
      <point x="876" y="606" type="line"/>
      <point x="876" y="0" type="line"/>
      <point x="943" y="0" type="line"/>
      <point x="943" y="606" type="line"/>
      <point x="1056" y="606" type="line"/>
      <point x="1056" y="666" type="line"/>
      <point x="483" y="666" type="line"/>
      <point x="483" y="606" type="line"/>
      <point x="603" y="606" type="line"/>
      <point x="603" y="366" type="line"/>
      <point x="574" y="349"/>
      <point x="547" y="340"/>
      <point x="530" y="340" type="curve" smooth="yes"/>
      <point x="482" y="340"/>
      <point x="424" y="357"/>
      <point x="364" y="393" type="curve"/>
      <point x="400" y="425"/>
      <point x="423" y="468"/>
      <point x="423" y="513" type="curve" smooth="yes"/>
      <point x="423" y="556"/>
      <point x="407" y="592"/>
      <point x="376" y="621" type="curve" smooth="yes"/>
      <point x="345" y="651"/>
      <point x="308" y="666"/>
      <point x="264" y="666" type="curve" smooth="yes"/>
      <point x="189" y="666"/>
      <point x="116" y="627"/>
      <point x="71" y="559" type="curve"/>
      <point x="117" y="513" type="line"/>
      <point x="164" y="568"/>
      <point x="217" y="599"/>
      <point x="264" y="599" type="curve" smooth="yes"/>
      <point x="315" y="599"/>
      <point x="357" y="561"/>
      <point x="357" y="513" type="curve" smooth="yes"/>
      <point x="357" y="485"/>
      <point x="341" y="459"/>
      <point x="310" y="434" type="curve" smooth="yes"/>
      <point x="279" y="410"/>
      <point x="244" y="396"/>
      <point x="204" y="393" type="curve"/>
      <point x="230" y="333" type="line"/>
      <point x="255" y="342"/>
      <point x="277" y="346"/>
      <point x="297" y="346" type="curve" smooth="yes"/>
      <point x="328" y="346"/>
      <point x="355" y="335"/>
      <point x="377" y="313" type="curve" smooth="yes"/>
      <point x="399" y="291"/>
      <point x="410" y="264"/>
      <point x="410" y="233" type="curve" smooth="yes"/>
      <point x="410" y="200"/>
      <point x="400" y="172"/>
      <point x="381" y="148" type="curve" smooth="yes"/>
      <point x="362" y="125"/>
      <point x="338" y="113"/>
      <point x="310" y="113" type="curve" smooth="yes"/>
      <point x="225" y="113"/>
      <point x="138" y="196"/>
      <point x="71" y="340" type="curve"/>
      <point x="24" y="300" type="line"/>
      <point x="99" y="140"/>
      <point x="203" y="47"/>
      <point x="310" y="47" type="curve" smooth="yes"/>
    </contour>
  </outline>
</glyph>
<glyph name="oShort-deva" format="1">
  <advance width="1042"/>
  <unicode hex="0912"/>
  <outline>
    <contour>
      <point x="780" y="806"/>
      <point x="811" y="792"/>
      <point x="837" y="764" type="curve" smooth="yes"/>
      <point x="863" y="737"/>
      <point x="876" y="704"/>
      <point x="876" y="666" type="curve"/>
      <point x="483" y="666" type="line"/>
      <point x="483" y="606" type="line"/>
      <point x="603" y="606" type="line"/>
      <point x="603" y="366" type="line"/>
      <point x="563" y="343"/>
      <point x="542" y="333"/>
      <point x="530" y="333" type="curve" smooth="yes"/>
      <point x="489" y="333"/>
      <point x="431" y="354"/>
      <point x="364" y="393" type="curve"/>
      <point x="400" y="425"/>
      <point x="423" y="471"/>
      <point x="423" y="519" type="curve" smooth="yes"/>
      <point x="423" y="562"/>
      <point x="407" y="598"/>
      <point x="376" y="627" type="curve" smooth="yes"/>
      <point x="345" y="657"/>
      <point x="308" y="672"/>
      <point x="264" y="672" type="curve" smooth="yes"/>
      <point x="192" y="672"/>
      <point x="120" y="631"/>
      <point x="71" y="559" type="curve"/>
      <point x="117" y="513" type="line"/>
      <point x="166" y="572"/>
      <point x="221" y="606"/>
      <point x="264" y="606" type="curve" smooth="yes"/>
      <point x="315" y="606"/>
      <point x="357" y="567"/>
      <point x="357" y="519" type="curve" smooth="yes"/>
      <point x="357" y="490"/>
      <point x="341" y="462"/>
      <point x="310" y="436" type="curve" smooth="yes"/>
      <point x="279" y="411"/>
      <point x="244" y="396"/>
      <point x="204" y="393" type="curve"/>
      <point x="230" y="333" type="line"/>
      <point x="255" y="342"/>
      <point x="277" y="346"/>
      <point x="297" y="346" type="curve" smooth="yes"/>
      <point x="328" y="346"/>
      <point x="355" y="335"/>
      <point x="377" y="313" type="curve" smooth="yes"/>
      <point x="399" y="291"/>
      <point x="410" y="264"/>
      <point x="410" y="233" type="curve" smooth="yes"/>
      <point x="410" y="200"/>
      <point x="400" y="172"/>
      <point x="381" y="148" type="curve" smooth="yes"/>
      <point x="362" y="125"/>
      <point x="338" y="113"/>
      <point x="310" y="113" type="curve" smooth="yes"/>
      <point x="225" y="113"/>
      <point x="138" y="196"/>
      <point x="71" y="340" type="curve"/>
      <point x="24" y="300" type="line"/>
      <point x="99" y="140"/>
      <point x="203" y="47"/>
      <point x="310" y="47" type="curve" smooth="yes"/>
      <point x="357" y="47"/>
      <point x="396" y="64"/>
      <point x="428" y="97" type="curve" smooth="yes"/>
      <point x="461" y="131"/>
      <point x="477" y="172"/>
      <point x="477" y="220" type="curve" smooth="yes"/>
      <point x="477" y="252"/>
      <point x="467" y="278"/>
      <point x="450" y="293" type="curve"/>
      <point x="467" y="281"/>
      <point x="500" y="273"/>
      <point x="537" y="273" type="curve" smooth="yes"/>
      <point x="560" y="273"/>
      <point x="582" y="281"/>
      <point x="603" y="300" type="curve"/>
      <point x="603" y="0" type="line"/>
      <point x="670" y="0" type="line"/>
      <point x="670" y="606" type="line"/>
      <point x="876" y="606" type="line"/>
      <point x="876" y="0" type="line"/>
      <point x="943" y="0" type="line"/>
      <point x="943" y="606" type="line"/>
      <point x="1056" y="606" type="line"/>
      <point x="1056" y="666" type="line"/>
      <point x="943" y="666" type="line"/>
      <point x="943" y="719"/>
      <point x="923" y="765"/>
      <point x="884" y="802" type="curve" smooth="yes"/>
      <point x="845" y="840"/>
      <point x="798" y="859"/>
      <point x="743" y="859" type="curve" smooth="yes"/>
      <point x="679" y="859"/>
      <point x="622" y="913"/>
      <point x="610" y="986" type="curve"/>
      <point x="543" y="986" type="line"/>
      <point x="552" y="933"/>
      <point x="576" y="890"/>
      <point x="613" y="856" type="curve"/>
      <point x="651" y="823"/>
      <point x="694" y="806"/>
      <point x="743" y="806" type="curve" smooth="yes"/>
    </contour>
  </outline>
</glyph>
<glyph name="au-deva" format="1">
  <advance width="1042"/>
  <unicode hex="0914"/>
  <outline>
    <contour>
      <point x="357" y="47"/>
      <point x="396" y="64"/>
      <point x="428" y="97" type="curve" smooth="yes"/>
      <point x="461" y="131"/>
      <point x="477" y="172"/>
      <point x="477" y="220" type="curve" smooth="yes"/>
      <point x="477" y="252"/>
      <point x="467" y="278"/>
      <point x="450" y="293" type="curve"/>
      <point x="467" y="281"/>
      <point x="500" y="273"/>
      <point x="537" y="273" type="curve" smooth="yes"/>
      <point x="560" y="273"/>
      <point x="582" y="281"/>
      <point x="603" y="300" type="curve"/>
      <point x="603" y="0" type="line"/>
      <point x="670" y="0" type="line"/>
      <point x="670" y="606" type="line"/>
      <point x="876" y="606" type="line"/>
      <point x="876" y="0" type="line"/>
      <point x="943" y="0" type="line"/>
      <point x="943" y="606" type="line"/>
      <point x="1056" y="606" type="line"/>
      <point x="1056" y="666" type="line"/>
      <point x="940" y="666" type="line"/>
      <point x="830" y="999" type="line"/>
      <point x="763" y="959" type="line"/>
      <point x="903" y="672" type="line"/>
      <point x="610" y="905" type="line"/>
      <point x="570" y="846" type="line"/>
      <point x="846" y="666" type="line"/>
      <point x="483" y="666" type="line"/>
      <point x="483" y="606" type="line"/>
      <point x="603" y="606" type="line"/>
      <point x="603" y="366" type="line"/>
      <point x="563" y="343"/>
      <point x="542" y="333"/>
      <point x="530" y="333" type="curve" smooth="yes"/>
      <point x="489" y="333"/>
      <point x="431" y="354"/>
      <point x="364" y="393" type="curve"/>
      <point x="400" y="425"/>
      <point x="423" y="468"/>
      <point x="423" y="513" type="curve" smooth="yes"/>
      <point x="423" y="557"/>
      <point x="406" y="594"/>
      <point x="372" y="625" type="curve" smooth="yes"/>
      <point x="339" y="656"/>
      <point x="298" y="672"/>
      <point x="250" y="672" type="curve" smooth="yes"/>
      <point x="189" y="672"/>
      <point x="120" y="631"/>
      <point x="71" y="559" type="curve"/>
      <point x="124" y="519" type="line"/>
      <point x="161" y="575"/>
      <point x="210" y="606"/>
      <point x="250" y="606" type="curve" smooth="yes"/>
      <point x="309" y="606"/>
      <point x="357" y="564"/>
      <point x="357" y="513" type="curve" smooth="yes"/>
      <point x="357" y="485"/>
      <point x="341" y="459"/>
      <point x="310" y="434" type="curve" smooth="yes"/>
      <point x="279" y="410"/>
      <point x="244" y="396"/>
      <point x="204" y="393" type="curve"/>
      <point x="230" y="333" type="line"/>
      <point x="255" y="342"/>
      <point x="277" y="346"/>
      <point x="297" y="346" type="curve" smooth="yes"/>
      <point x="328" y="346"/>
      <point x="355" y="334"/>
      <point x="377" y="309" type="curve" smooth="yes"/>
      <point x="399" y="284"/>
      <point x="410" y="255"/>
      <point x="410" y="220" type="curve" smooth="yes"/>
      <point x="410" y="161"/>
      <point x="366" y="113"/>
      <point x="310" y="113" type="curve" smooth="yes"/>
      <point x="225" y="113"/>
      <point x="138" y="196"/>
      <point x="71" y="340" type="curve"/>
      <point x="24" y="300" type="line"/>
      <point x="99" y="140"/>
      <point x="203" y="47"/>
      <point x="310" y="47" type="curve" smooth="yes"/>
    </contour>
  </outline>
</glyph>
<glyph name="kha-deva" format="1">
  <advance width="833"/>
  <unicode hex="0916"/>
  <outline>
    <contour>
      <point x="0" y="627" type="line"/>
      <point x="0" y="583" type="line"/>
      <point x="201.455" y="583" type="line"/>
      <point x="225" y="536"/>
      <point x="235" y="488"/>
      <point x="235" y="447" type="curve" smooth="yes"/>
      <point x="235" y="375"/>
      <point x="205" y="325"/>
      <point x="166" y="340" type="curve"/>
      <point x="161" y="384"/>
      <point x="132" y="403"/>
      <point x="100" y="403" type="curve" smooth="yes"/>
      <point x="65" y="403"/>
      <point x="39" y="379"/>
      <point x="39" y="340" type="curve" smooth="yes"/>
      <point x="39" y="167"/>
      <point x="168" y="1"/>
      <point x="396" y="1" type="curve" smooth="yes"/>
      <point x="468" y="1"/>
      <point x="551" y="18"/>
      <point x="642" y="56" type="curve"/>
      <point x="642" y="0" type="line"/>
      <point x="729" y="0" type="line"/>
      <point x="729" y="583" type="line"/>
      <point x="833" y="583" type="line"/>
      <point x="833" y="627" type="line"/>
    </contour>
    <contour>
      <point x="224" y="243"/>
      <point x="291" y="324"/>
      <point x="291" y="433" type="curve" smooth="yes"/>
      <point x="291" y="480"/>
      <point x="279" y="533"/>
      <point x="249.906" y="583" type="curve"/>
      <point x="642" y="583" type="line"/>
      <point x="642" y="239" type="line"/>
      <point x="623" y="224"/>
      <point x="583" y="216"/>
      <point x="557" y="216" type="curve" smooth="yes"/>
      <point x="494" y="216"/>
      <point x="440" y="246"/>
      <point x="440" y="340" type="curve" smooth="yes"/>
      <point x="440" y="410"/>
      <point x="486" y="444"/>
      <point x="539" y="444" type="curve" smooth="yes"/>
      <point x="558" y="444"/>
      <point x="578" y="441"/>
      <point x="597" y="431" type="curve"/>
      <point x="610" y="461" type="line"/>
      <point x="588" y="478"/>
      <point x="553" y="486"/>
      <point x="510" y="486" type="curve" smooth="yes"/>
      <point x="435" y="486"/>
      <point x="345" y="435"/>
      <point x="345" y="327" type="curve" smooth="yes"/>
      <point x="345" y="224"/>
      <point x="430" y="170"/>
      <point x="527" y="172" type="curve" smooth="yes"/>
      <point x="568" y="173"/>
      <point x="612" y="183"/>
      <point x="642" y="207" type="curve"/>
      <point x="642" y="97" type="line"/>
      <point x="565" y="68"/>
      <point x="486" y="52"/>
      <point x="414" y="52" type="curve" smooth="yes"/>
      <point x="266" y="52"/>
      <point x="149" y="123"/>
      <point x="138.329" y="283.892" type="curve"/>
    </contour>
  </outline>
</glyph>
<glyph name="ta-deva" format="1">
  <advance width="584"/>
  <unicode hex="0924"/>
  <outline>
    <contour>
      <point x="0" y="627" type="line"/>
      <point x="0" y="583" type="line"/>
      <point x="387" y="583" type="line"/>
      <point x="387" y="456" type="line"/>
      <point x="269" y="456" type="line" smooth="yes"/>
      <point x="135" y="456"/>
      <point x="57" y="404"/>
      <point x="57" y="276" type="curve" smooth="yes"/>
      <point x="57" y="174"/>
      <point x="105" y="96"/>
      <point x="235" y="-12" type="curve"/>
      <point x="290" y="40" type="line"/>
      <point x="182" y="128"/>
      <point x="143" y="209"/>
      <point x="143" y="284" type="curve" smooth="yes"/>
      <point x="143" y="362"/>
      <point x="185" y="412"/>
      <point x="270" y="412" type="curve" smooth="yes"/>
      <point x="387" y="412" type="line"/>
      <point x="387" y="0" type="line"/>
      <point x="473" y="0" type="line"/>
      <point x="473" y="583" type="line"/>
      <point x="584" y="583" type="line"/>
      <point x="584" y="627" type="line"/>
    </contour>
    <contour>
      <point x="478" y="664" type="move" name="mark0"/>
    </contour>
  </outline>
</glyph>
<glyph name="dha-deva" format="1">
  <advance width="648"/>
  <unicode hex="0927"/>
  <outline>
    <contour>
      <point x="366" y="627" type="line"/>
      <point x="366" y="583" type="line"/>
      <point x="472" y="583" type="line"/>
      <point x="472" y="0" type="line"/>
      <point x="559" y="0" type="line"/>
      <point x="559" y="583" type="line"/>
      <point x="630" y="583" type="line"/>
      <point x="630" y="627" type="line"/>
    </contour>
    <contour>
      <point x="496" y="218" type="line"/>
      <point x="459" y="149"/>
      <point x="377" y="115"/>
      <point x="305" y="115" type="curve" smooth="yes"/>
      <point x="215" y="115"/>
      <point x="170" y="167"/>
      <point x="170" y="232" type="curve" smooth="yes"/>
      <point x="170" y="284"/>
      <point x="198" y="354"/>
      <point x="256" y="354" type="curve"/>
      <point x="256" y="382" type="line"/>
      <point x="150" y="382"/>
      <point x="80" y="320"/>
      <point x="80" y="228" type="curve" smooth="yes"/>
      <point x="80" y="123"/>
      <point x="171" y="74"/>
      <point x="280" y="74" type="curve" smooth="yes"/>
      <point x="384" y="74"/>
      <point x="478" y="117"/>
      <point x="527" y="184" type="curve"/>
    </contour>
    <contour>
      <point x="249" y="492" type="curve"/>
      <point x="265" y="467" type="line"/>
      <point x="301" y="481"/>
      <point x="317" y="519"/>
      <point x="317" y="557" type="curve" smooth="yes"/>
      <point x="317" y="615"/>
      <point x="277" y="656"/>
      <point x="205" y="656" type="curve" smooth="yes"/>
      <point x="129" y="656"/>
      <point x="56" y="609"/>
      <point x="56" y="515" type="curve" smooth="yes"/>
      <point x="56" y="436"/>
      <point x="109" y="354"/>
      <point x="259" y="354" type="curve" smooth="yes"/>
      <point x="321" y="354" type="line"/>
      <point x="321" y="394" type="line"/>
      <point x="240" y="394" type="line" smooth="yes"/>
      <point x="178" y="394"/>
      <point x="137" y="435"/>
      <point x="137" y="510" type="curve" smooth="yes"/>
      <point x="137" y="579"/>
      <point x="170" y="616"/>
      <point x="215" y="616" type="curve" smooth="yes"/>
      <point x="251" y="616"/>
      <point x="278" y="596"/>
      <point x="278" y="548" type="curve" smooth="yes"/>
      <point x="278" y="517"/>
      <point x="269" y="504"/>
    </contour>
    <contour>
      <point x="520" y="664" type="move" name="mark0"/>
    </contour>
  </outline>
</glyph>
<glyph name="na-deva" format="1">
  <advance width="585"/>
  <unicode hex="0928"/>
  <outline>
    <contour>
      <point x="97" y="377" type="line"/>
      <point x="97" y="333" type="line"/>
      <point x="401" y="333" type="line"/>
      <point x="401" y="0" type="line"/>
      <point x="488" y="0" type="line"/>
      <point x="488" y="583" type="line"/>
      <point x="593" y="583" type="line"/>
      <point x="593" y="627" type="line"/>
      <point x="-13" y="627" type="line"/>
      <point x="-13" y="583" type="line"/>
      <point x="401" y="583" type="line"/>
      <point x="401" y="377" type="line"/>
    </contour>
    <component base="deva_knot" yOffset="56"/>
    <contour>
      <point x="455" y="664" type="move" name="mark0"/>
    </contour>
  </outline>
</glyph>
<glyph name="nnna-deva" format="1">
  <advance width="585"/>
  <unicode hex="0929"/>
  <outline>
    <contour>
      <point x="280" y="40" type="line"/>
      <point x="226" y="93" type="line"/>
      <point x="173" y="40" type="line"/>
      <point x="226" y="-7" type="line"/>
    </contour>
    <contour>
      <point x="20" y="381"/>
      <point x="38" y="349"/>
      <point x="75" y="302" type="curve" smooth="yes"/>
      <point x="112" y="256"/>
      <point x="138" y="233"/>
      <point x="153" y="233" type="curve" smooth="yes"/>
      <point x="170" y="233"/>
      <point x="186" y="252"/>
      <point x="186" y="273" type="curve" smooth="yes"/>
      <point x="186" y="340" type="line" smooth="yes"/>
      <point x="186" y="353"/>
      <point x="205" y="366"/>
      <point x="226" y="366" type="curve" smooth="yes"/>
      <point x="419" y="366" type="line"/>
      <point x="419" y="0" type="line"/>
      <point x="486" y="0" type="line"/>
      <point x="486" y="606" type="line"/>
      <point x="599" y="606" type="line"/>
      <point x="599" y="666" type="line"/>
      <point x="-13" y="666" type="line"/>
      <point x="-13" y="606" type="line"/>
      <point x="419" y="606" type="line"/>
      <point x="419" y="433" type="line"/>
      <point x="67" y="433" type="line" smooth="yes"/>
      <point x="42" y="433"/>
      <point x="20" y="418"/>
      <point x="20" y="399" type="curve" smooth="yes"/>
    </contour>
    <contour>
      <point x="452" y="666" type="move" name="mark0"/>
    </contour>
  </outline>
</glyph>
<glyph name="ba-deva" format="1">
  <advance width="537"/>
  <unicode hex="092C"/>
  <outline>
    <contour>
      <point x="192" y="213"/>
      <point x="164" y="223"/>
      <point x="140" y="244" type="curve" smooth="yes"/>
      <point x="117" y="265"/>
      <point x="105" y="291"/>
      <point x="105" y="320" type="curve" smooth="yes"/>
      <point x="105" y="348"/>
      <point x="113" y="370"/>
      <point x="125" y="386" type="curve"/>
      <point x="305" y="240" type="line"/>
      <point x="284" y="221"/>
      <point x="257" y="213"/>
      <point x="225" y="213" type="curve" smooth="yes"/>
    </contour>
    <contour>
      <point x="39" y="272"/>
      <point x="57" y="231"/>
      <point x="93" y="197" type="curve" smooth="yes"/>
      <point x="130" y="163"/>
      <point x="174" y="146"/>
      <point x="225" y="146" type="curve" smooth="yes"/>
      <point x="277" y="146"/>
      <point x="329" y="170"/>
      <point x="372" y="213" type="curve"/>
      <point x="372" y="0" type="line"/>
      <point x="438" y="0" type="line"/>
      <point x="438" y="606" type="line"/>
      <point x="551" y="606" type="line"/>
      <point x="551" y="666" type="line"/>
      <point x="-13" y="666" type="line"/>
      <point x="-13" y="606" type="line"/>
      <point x="372" y="606" type="line"/>
      <point x="372" y="306" type="line"/>
      <point x="352" y="280" type="line"/>
      <point x="158" y="426" type="line"/>
      <point x="171" y="442"/>
      <point x="199" y="453"/>
      <point x="238" y="453" type="curve" smooth="yes"/>
      <point x="263" y="453"/>
      <point x="285" y="448"/>
      <point x="305" y="439" type="curve"/>
      <point x="325" y="493" type="line"/>
      <point x="302" y="505"/>
      <point x="273" y="513"/>
      <point x="238" y="513" type="curve" smooth="yes"/>
      <point x="183" y="513"/>
      <point x="136" y="494"/>
      <point x="97" y="456" type="curve" smooth="yes"/>
      <point x="58" y="418"/>
      <point x="39" y="373"/>
      <point x="39" y="320" type="curve" smooth="yes"/>
    </contour>
    <contour>
      <point x="407" y="666" type="move" name="mark0"/>
    </contour>
  </outline>
</glyph>
<glyph name="ya-deva" format="1">
  <advance width="596"/>
  <unicode hex="092F"/>
  <outline>
    <contour>
      <point x="419" y="599" type="line"/>
      <point x="419" y="0" type="line"/>
      <point x="506" y="0" type="line"/>
      <point x="506" y="599" type="line"/>
    </contour>
    <contour>
      <point x="419" y="462" type="line"/>
      <point x="419" y="370" type="line" smooth="yes"/>
      <point x="419" y="223"/>
      <point x="325" y="169"/>
      <point x="261" y="168" type="curve" smooth="yes"/>
      <point x="184" y="167"/>
      <point x="137" y="220"/>
      <point x="137" y="342" type="curve"/>
      <point x="50" y="342" type="line"/>
      <point x="50" y="302" type="line" smooth="yes"/>
      <point x="50" y="220"/>
      <point x="124" y="127"/>
      <point x="257" y="127" type="curve" smooth="yes"/>
      <point x="366" y="127"/>
      <point x="487" y="188"/>
      <point x="487" y="456" type="curve" smooth="yes"/>
      <point x="487" y="462" type="line"/>
    </contour>
    <contour>
      <point x="610" y="583" type="line"/>
      <point x="610" y="627" type="line"/>
      <point x="-13" y="627" type="line"/>
      <point x="-13" y="583" type="line"/>
    </contour>
    <contour>
      <point x="129" y="608" type="line"/>
      <point x="175" y="582"/>
      <point x="197" y="535"/>
      <point x="197" y="489" type="curve" smooth="yes"/>
      <point x="197" y="417"/>
      <point x="145" y="345"/>
      <point x="50" y="345" type="curve"/>
      <point x="50" y="307" type="line"/>
      <point x="150" y="307"/>
      <point x="275" y="356"/>
      <point x="274" y="478" type="curve" smooth="yes"/>
      <point x="273" y="555"/>
      <point x="222" y="627"/>
      <point x="129" y="627" type="curve"/>
    </contour>
    <contour>
      <point x="464" y="664" type="move" name="mark0"/>
    </contour>
  </outline>
</glyph>
<glyph name="ra-deva" format="1">
  <advance width="463"/>
  <unicode hex="0930"/>
  <outline>
    <contour>
      <point x="463" y="583" type="line"/>
      <point x="463" y="627" type="line"/>
      <point x="0" y="627" type="line"/>
      <point x="0" y="583" type="line"/>
    </contour>
    <contour>
      <point x="229" y="590" type="line"/>
      <point x="285" y="466"/>
      <point x="283" y="336"/>
      <point x="131" y="336" type="curve"/>
      <point x="131" y="270" type="line"/>
      <point x="268" y="270"/>
      <point x="389" y="401"/>
      <point x="298" y="590" type="curve"/>
    </contour>
    <contour>
      <point x="385" y="48" type="line"/>
      <point x="259" y="114"/>
      <point x="186" y="174"/>
      <point x="140" y="275" type="curve"/>
      <point x="155" y="276"/>
      <point x="195" y="292"/>
      <point x="195" y="322" type="curve" smooth="yes"/>
      <point x="195" y="354"/>
      <point x="173" y="378"/>
      <point x="130" y="378" type="curve" smooth="yes"/>
      <point x="93" y="378"/>
      <point x="60" y="351"/>
      <point x="60" y="304" type="curve" smooth="yes"/>
      <point x="60" y="196"/>
      <point x="157" y="89"/>
      <point x="351" y="-3" type="curve"/>
    </contour>
    <contour>
      <point x="344" y="664" type="move" name="mark0"/>
    </contour>
  </outline>
</glyph>
<glyph name="rra-deva" format="1">
  <advance width="442"/>
  <unicode hex="0931"/>
  <outline>
    <contour>
      <point x="178" y="40" type="line"/>
      <point x="125" y="93" type="line"/>
      <point x="72" y="40" type="line"/>
      <point x="125" y="-7" type="line"/>
    </contour>
    <contour>
      <point x="405" y="47" type="line"/>
      <point x="308" y="128"/>
      <point x="228" y="220"/>
      <point x="172" y="320" type="curve"/>
      <point x="196" y="311"/>
      <point x="214" y="306"/>
      <point x="225" y="306" type="curve" smooth="yes"/>
      <point x="263" y="306"/>
      <point x="296" y="320"/>
      <point x="323" y="348" type="curve" smooth="yes"/>
      <point x="351" y="377"/>
      <point x="365" y="412"/>
      <point x="365" y="453" type="curve" smooth="yes"/>
      <point x="365" y="606" type="line"/>
      <point x="455" y="606" type="line"/>
      <point x="455" y="666" type="line"/>
      <point x="-13" y="666" type="line"/>
      <point x="-13" y="606" type="line"/>
      <point x="298" y="606" type="line"/>
      <point x="298" y="453" type="line" smooth="yes"/>
      <point x="298" y="405"/>
      <point x="266" y="366"/>
      <point x="225" y="366" type="curve" smooth="yes"/>
      <point x="168" y="366"/>
      <point x="114" y="416"/>
      <point x="85" y="493" type="curve"/>
      <point x="25" y="446" type="line"/>
      <point x="108" y="273"/>
      <point x="222" y="119"/>
      <point x="365" y="0" type="curve"/>
    </contour>
    <contour>
      <point x="335" y="665" type="move" name="mark0"/>
    </contour>
  </outline>
</glyph>
<glyph name="llla-deva" format="1">
  <advance width="733"/>
  <unicode hex="0934"/>
  <outline>
    <contour>
      <point x="423" y="33" type="line"/>
      <point x="370" y="87" type="line"/>
      <point x="317" y="33" type="line"/>
      <point x="370" y="-20" type="line"/>
    </contour>
    <contour>
      <point x="484" y="133"/>
      <point x="435" y="191"/>
      <point x="403" y="280" type="curve"/>
      <point x="424" y="361"/>
      <point x="475" y="419"/>
      <point x="523" y="419" type="curve" smooth="yes"/>
      <point x="551" y="419"/>
      <point x="575" y="405"/>
      <point x="594" y="378" type="curve" smooth="yes"/>
      <point x="613" y="351"/>
      <point x="623" y="318"/>
      <point x="623" y="280" type="curve" smooth="yes"/>
      <point x="623" y="239"/>
      <point x="613" y="204"/>
      <point x="594" y="175" type="curve" smooth="yes"/>
      <point x="575" y="147"/>
      <point x="551" y="133"/>
      <point x="523" y="133" type="curve" smooth="yes"/>
    </contour>
    <contour>
      <point x="193" y="140"/>
      <point x="166" y="154"/>
      <point x="144" y="181" type="curve" smooth="yes"/>
      <point x="122" y="208"/>
      <point x="111" y="241"/>
      <point x="111" y="280" type="curve" smooth="yes"/>
      <point x="111" y="318"/>
      <point x="122" y="351"/>
      <point x="144" y="378" type="curve" smooth="yes"/>
      <point x="166" y="405"/>
      <point x="193" y="419"/>
      <point x="224" y="419" type="curve" smooth="yes"/>
      <point x="268" y="419"/>
      <point x="314" y="360"/>
      <point x="337" y="273" type="curve"/>
      <point x="309" y="193"/>
      <point x="263" y="140"/>
      <point x="224" y="140" type="curve" smooth="yes"/>
    </contour>
    <contour>
      <point x="275" y="73"/>
      <point x="333" y="125"/>
      <point x="370" y="206" type="curve"/>
      <point x="407" y="125"/>
      <point x="468" y="73"/>
      <point x="523" y="73" type="curve" smooth="yes"/>
      <point x="570" y="73"/>
      <point x="609" y="93"/>
      <point x="641" y="133" type="curve" smooth="yes"/>
      <point x="674" y="174"/>
      <point x="690" y="223"/>
      <point x="690" y="280" type="curve" smooth="yes"/>
      <point x="690" y="326"/>
      <point x="677" y="367"/>
      <point x="650" y="403" type="curve" smooth="yes"/>
      <point x="624" y="439"/>
      <point x="591" y="462"/>
      <point x="550" y="473" type="curve"/>
      <point x="550" y="606" type="line"/>
      <point x="747" y="606" type="line"/>
      <point x="747" y="666" type="line"/>
      <point x="-13" y="666" type="line"/>
      <point x="-13" y="606" type="line"/>
      <point x="477" y="606" type="line"/>
      <point x="477" y="473" type="line"/>
      <point x="436" y="458"/>
      <point x="397" y="416"/>
      <point x="370" y="360" type="curve"/>
      <point x="343" y="432"/>
      <point x="285" y="479"/>
      <point x="224" y="479" type="curve" smooth="yes"/>
      <point x="174" y="479"/>
      <point x="131" y="460"/>
      <point x="96" y="421" type="curve" smooth="yes"/>
      <point x="61" y="383"/>
      <point x="44" y="337"/>
      <point x="44" y="282" type="curve" smooth="yes"/>
      <point x="44" y="225"/>
      <point x="61" y="175"/>
      <point x="96" y="134" type="curve" smooth="yes"/>
      <point x="131" y="93"/>
      <point x="174" y="73"/>
      <point x="224" y="73" type="curve" smooth="yes"/>
    </contour>
    <contour>
      <point x="515" y="664" type="move" name="mark0"/>
    </contour>
  </outline>
</glyph>
<glyph name="sa-deva" format="1">
  <advance width="736"/>
  <unicode hex="0938"/>
  <outline>
    <contour>
      <point x="303" y="600" type="line"/>
      <point x="303" y="468" type="line" smooth="yes"/>
      <point x="303" y="335"/>
      <point x="160" y="314"/>
      <point x="87" y="479" type="curve"/>
      <point x="54" y="461" type="line"/>
      <point x="93" y="382"/>
      <point x="135" y="308"/>
      <point x="223" y="308" type="curve" smooth="yes"/>
      <point x="305" y="308"/>
      <point x="389" y="359"/>
      <point x="389" y="524" type="curve" smooth="yes"/>
      <point x="389" y="600" type="line"/>
    </contour>
    <contour>
      <point x="736" y="583" type="line"/>
      <point x="736" y="627" type="line"/>
      <point x="0" y="627" type="line"/>
      <point x="0" y="583" type="line"/>
    </contour>
    <contour>
      <point x="265" y="133"/>
      <point x="134" y="271"/>
      <point x="87" y="479" type="curve"/>
      <point x="23" y="446" type="line"/>
      <point x="76" y="243"/>
      <point x="206" y="99"/>
      <point x="373" y="0" type="curve"/>
      <point x="412" y="47" type="line"/>
    </contour>
    <contour>
      <point x="378" y="377" type="line"/>
      <point x="401" y="333" type="line"/>
      <point x="544" y="333" type="line"/>
      <point x="544" y="0" type="line"/>
      <point x="631" y="0" type="line"/>
      <point x="631" y="583" type="line"/>
      <point x="736" y="583" type="line"/>
      <point x="736" y="627" type="line"/>
      <point x="130" y="627" type="line"/>
      <point x="130" y="583" type="line"/>
      <point x="544" y="583" type="line"/>
      <point x="544" y="377" type="line"/>
    </contour>
    <contour>
      <point x="589" y="664" type="move" name="mark0"/>
    </contour>
  </outline>
</glyph>
<glyph name="aaMatra-deva" format="1">
  <advance width="273"/>
  <unicode hex="093E"/>
  <outline>
    <contour>
      <point x="93" y="599" type="line"/>
      <point x="93" y="0" type="line"/>
      <point x="180" y="0" type="line"/>
      <point x="180" y="599" type="line"/>
    </contour>
    <contour>
      <point x="273" y="583" type="line"/>
      <point x="273" y="627" type="line"/>
      <point x="0" y="627" type="line"/>
      <point x="0" y="583" type="line"/>
    </contour>
  </outline>
</glyph>
<glyph name="uMatra-deva" format="1">
  <advance width="0"/>
  <unicode hex="0941"/>
  <outline>
    <contour>
      <point x="-39" y="10"/>
      <point x="-135" y="10" type="curve" smooth="yes"/>
      <point x="-198" y="10"/>
      <point x="-247" y="-15"/>
      <point x="-288" y="-48" type="curve"/>
      <point x="-269" y="-77" type="line"/>
      <point x="-231" y="-49"/>
      <point x="-189" y="-33"/>
      <point x="-154" y="-33" type="curve" smooth="yes"/>
      <point x="-110" y="-33"/>
      <point x="-74" y="-58"/>
      <point x="-74" y="-123" type="curve" smooth="yes"/>
      <point x="-74" y="-207"/>
      <point x="-137" y="-249"/>
      <point x="-213" y="-249" type="curve" smooth="yes"/>
      <point x="-301" y="-250"/>
      <point x="-410" y="-194"/>
      <point x="-474" y="-97" type="curve"/>
      <point x="-495" y="-122" type="line"/>
      <point x="-435" y="-207"/>
      <point x="-336" y="-287"/>
      <point x="-190" y="-287" type="curve" smooth="yes"/>
      <point x="-48" y="-287"/>
      <point x="17" y="-213"/>
      <point x="17" y="-121" type="curve" smooth="yes"/>
      <point x="17" y="-49"/>
    </contour>
    <contour>
      <point x="-143" y="61" type="move" name="_mark0"/>
    </contour>
  </outline>
</glyph>
<glyph name="rrVocalicMatra-deva" format="1">
  <advance width="0"/>
  <unicode hex="0944"/>
  <outline>
    <contour>
      <point x="-102" y="-266"/>
      <point x="-52" y="-254"/>
      <point x="-23" y="-233" type="curve"/>
      <point x="-43" y="-186" type="line"/>
      <point x="-67" y="-205"/>
      <point x="-113" y="-213"/>
      <point x="-176" y="-213" type="curve" smooth="yes"/>
      <point x="-227" y="-213"/>
      <point x="-269" y="-194"/>
      <point x="-269" y="-173" type="curve" smooth="yes"/>
      <point x="-269" y="-148"/>
      <point x="-233" y="-127"/>
      <point x="-189" y="-127" type="curve" smooth="yes"/>
      <point x="-129" y="-127" type="line"/>
      <point x="-129" y="-73" type="line"/>
      <point x="-176" y="-73" type="line" smooth="yes"/>
      <point x="-220" y="-73"/>
      <point x="-256" y="-54"/>
      <point x="-256" y="-33" type="curve" smooth="yes"/>
      <point x="-256" y="-16"/>
      <point x="-233" y="0"/>
      <point x="-202" y="0" type="curve" smooth="yes"/>
      <point x="-96" y="0" type="line"/>
      <point x="-96" y="47" type="line"/>
      <point x="-216" y="47" type="line" smooth="yes"/>
      <point x="-271" y="47"/>
      <point x="-316" y="11"/>
      <point x="-316" y="-33" type="curve" smooth="yes"/>
      <point x="-316" y="-64"/>
      <point x="-291" y="-91"/>
      <point x="-256" y="-100" type="curve"/>
      <point x="-300" y="-116"/>
      <point x="-329" y="-145"/>
      <point x="-329" y="-173" type="curve" smooth="yes"/>
      <point x="-329" y="-199"/>
      <point x="-313" y="-221"/>
      <point x="-280" y="-239" type="curve" smooth="yes"/>
      <point x="-248" y="-257"/>
      <point x="-209" y="-266"/>
      <point x="-162" y="-266" type="curve" smooth="yes"/>
    </contour>
    <contour>
      <point x="-130" y="69" type="move" name="_mark0"/>
    </contour>
  </outline>
</glyph>
<glyph name="eCandraMatra-deva" format="1">
  <advance width="0"/>
  <unicode hex="0945"/>
  <outline>
    <contour>
      <point x="-78" y="759"/>
      <point x="-34" y="776"/>
      <point x="3" y="810" type="curve" smooth="yes"/>
      <point x="41" y="844"/>
      <point x="64" y="887"/>
      <point x="73" y="939" type="curve"/>
      <point x="7" y="939" type="line"/>
      <point x="-6" y="867"/>
      <point x="-63" y="813"/>
      <point x="-127" y="813" type="curve" smooth="yes"/>
      <point x="-158" y="813"/>
      <point x="-187" y="825"/>
      <point x="-212" y="849" type="curve" smooth="yes"/>
      <point x="-237" y="873"/>
      <point x="-253" y="903"/>
      <point x="-260" y="939" type="curve"/>
      <point x="-326" y="939" type="line"/>
      <point x="-317" y="887"/>
      <point x="-294" y="844"/>
      <point x="-256" y="810" type="curve" smooth="yes"/>
      <point x="-219" y="776"/>
      <point x="-176" y="759"/>
      <point x="-127" y="759" type="curve" smooth="yes"/>
    </contour>
    <contour>
      <point x="-127" y="665" type="move" name="_mark0"/>
    </contour>
  </outline>
</glyph>
<glyph name="eMatra-deva" format="1">
  <advance width="0"/>
  <unicode hex="0947"/>
  <outline>
    <contour>
      <point x="-103" y="666" type="line"/>
      <point x="-369" y="999" type="line"/>
      <point x="-415" y="959" type="line"/>
      <point x="-169" y="666" type="line"/>
    </contour>
    <contour>
      <point x="-122" y="664" type="move" name="_mark0"/>
    </contour>
  </outline>
</glyph>
<glyph name="aiMatra-deva" format="1">
  <advance width="0"/>
  <unicode hex="0948"/>
  <outline>
    <contour>
      <point x="-105" y="666" type="line"/>
      <point x="-218" y="999" type="line"/>
      <point x="-285" y="959" type="line"/>
      <point x="-145" y="672" type="line"/>
      <point x="-438" y="905" type="line"/>
      <point x="-478" y="846" type="line"/>
      <point x="-192" y="666" type="line"/>
    </contour>
    <contour>
      <point x="-135" y="664" type="move" name="_mark0"/>
    </contour>
  </outline>
</glyph>
<glyph name="oShortMatra-deva" format="1">
  <advance width="266"/>
  <unicode hex="094A"/>
  <outline>
    <contour>
      <point x="3" y="806"/>
      <point x="34" y="792"/>
      <point x="60" y="764" type="curve"/>
      <point x="87" y="737"/>
      <point x="100" y="704"/>
      <point x="100" y="666" type="curve"/>
      <point x="-13" y="666" type="line"/>
      <point x="-13" y="606" type="line"/>
      <point x="100" y="606" type="line"/>
      <point x="100" y="0" type="line"/>
      <point x="166" y="0" type="line"/>
      <point x="166" y="606" type="line"/>
      <point x="280" y="606" type="line"/>
      <point x="280" y="666" type="line"/>
      <point x="166" y="666" type="line"/>
      <point x="166" y="719"/>
      <point x="146" y="765"/>
      <point x="107" y="802" type="curve" smooth="yes"/>
      <point x="68" y="840"/>
      <point x="22" y="859"/>
      <point x="-33" y="859" type="curve" smooth="yes"/>
      <point x="-97" y="859"/>
      <point x="-154" y="913"/>
      <point x="-166" y="986" type="curve"/>
      <point x="-233" y="986" type="line"/>
      <point x="-224" y="933"/>
      <point x="-201" y="890"/>
      <point x="-163" y="856" type="curve" smooth="yes"/>
      <point x="-126" y="823"/>
      <point x="-82" y="806"/>
      <point x="-33" y="806" type="curve" smooth="yes"/>
    </contour>
  </outline>
</glyph>
<glyph name="oMatra-deva" format="1">
  <advance width="266"/>
  <unicode hex="094B"/>
  <outline>
    <contour>
      <point x="0" y="627" type="line"/>
      <point x="0" y="583" type="line"/>
      <point x="88" y="583" type="line"/>
      <point x="88" y="0" type="line"/>
      <point x="175" y="0" type="line"/>
      <point x="175" y="583" type="line"/>
      <point x="273" y="583" type="line"/>
      <point x="273" y="627" type="line"/>
    </contour>
    <contour>
      <point x="161" y="626" type="line"/>
      <point x="-100" y="959" type="line"/>
      <point x="-146" y="919" type="line"/>
      <point x="95" y="626" type="line"/>
    </contour>
    <contour>
      <point x="231" y="111" type="move" name="mark0"/>
    </contour>
  </outline>
</glyph>
<glyph name="auMatra-deva" format="1">
  <advance width="266"/>
  <unicode hex="094C"/>
  <outline>
    <contour>
      <point x="100" y="606" type="line"/>
      <point x="100" y="0" type="line"/>
      <point x="166" y="0" type="line"/>
      <point x="166" y="606" type="line"/>
      <point x="280" y="606" type="line"/>
      <point x="280" y="666" type="line"/>
      <point x="170" y="666" type="line"/>
      <point x="60" y="999" type="line"/>
      <point x="-7" y="959" type="line"/>
      <point x="133" y="666" type="line"/>
      <point x="-160" y="905" type="line"/>
      <point x="-200" y="846" type="line"/>
      <point x="76" y="666" type="line"/>
      <point x="-13" y="666" type="line"/>
      <point x="-13" y="606" type="line"/>
    </contour>
    <contour>
      <point x="335" y="71" type="move" name="mark0"/>
    </contour>
  </outline>
</glyph>
<glyph name="halant-deva" format="1">
  <advance width="0"/>
  <unicode hex="094D"/>
  <outline>
    <contour>
      <point x="-180" y="-95" type="line"/>
      <point x="-170" y="-92"/>
      <point x="-156" y="-90"/>
      <point x="-138" y="-90" type="curve" smooth="yes"/>
      <point x="-47" y="-92"/>
      <point x="24" y="-158"/>
      <point x="94" y="-268" type="curve"/>
      <point x="151" y="-227" type="line"/>
      <point x="90" y="-133"/>
      <point x="44" y="-94"/>
      <point x="-13" y="-65" type="curve"/>
      <point x="-49" y="-48"/>
      <point x="-88" y="-39"/>
      <point x="-131" y="-39" type="curve" smooth="yes"/>
      <point x="-148" y="-39"/>
      <point x="-165" y="-41"/>
      <point x="-179" y="-44" type="curve"/>
    </contour>
    <contour>
      <point x="-119" y="42" type="move" name="_mark0"/>
    </contour>
  </outline>
</glyph>
<glyph name="om-deva" format="1">
  <advance width="977"/>
  <unicode hex="0950"/>
  <outline>
    <contour>
      <point x="738" y="739" type="line"/>
      <point x="738" y="812" type="line"/>
      <point x="664" y="812" type="line"/>
      <point x="664" y="739" type="line"/>
    </contour>
    <contour>
      <point x="465" y="786" type="line"/>
      <point x="474" y="733"/>
      <point x="500" y="690"/>
      <point x="544" y="656" type="curve" smooth="yes"/>
      <point x="588" y="623"/>
      <point x="639" y="606"/>
      <point x="698" y="606" type="curve" smooth="yes"/>
      <point x="757" y="606"/>
      <point x="808" y="623"/>
      <point x="851" y="656" type="curve" smooth="yes"/>
      <point x="895" y="690"/>
      <point x="922" y="733"/>
      <point x="931" y="786" type="curve"/>
      <point x="864" y="786" type="line"/>
      <point x="836" y="706"/>
      <point x="769" y="652"/>
      <point x="698" y="652" type="curve" smooth="yes"/>
      <point x="626" y="652"/>
      <point x="560" y="706"/>
      <point x="531" y="786" type="curve"/>
    </contour>
    <contour>
      <point x="390" y="430"/>
      <point x="375" y="403"/>
      <point x="345" y="380" type="curve" smooth="yes"/>
      <point x="316" y="357"/>
      <point x="280" y="343"/>
      <point x="238" y="340" type="curve"/>
      <point x="278" y="293" type="line"/>
      <point x="291" y="297"/>
      <point x="308" y="300"/>
      <point x="332" y="300" type="curve" smooth="yes"/>
      <point x="372" y="300"/>
      <point x="405" y="249"/>
      <point x="405" y="186" type="curve" smooth="yes"/>
      <point x="405" y="127"/>
      <point x="363" y="80"/>
      <point x="312" y="80" type="curve" smooth="yes"/>
      <point x="228" y="80"/>
      <point x="138" y="161"/>
      <point x="79" y="286" type="curve"/>
      <point x="19" y="253" type="line"/>
      <point x="52" y="180"/>
      <point x="96" y="122"/>
      <point x="149" y="78" type="curve" smooth="yes"/>
      <point x="202" y="35"/>
      <point x="257" y="13"/>
      <point x="312" y="13" type="curve" smooth="yes"/>
      <point x="356" y="13"/>
      <point x="393" y="30"/>
      <point x="424" y="64" type="curve" smooth="yes"/>
      <point x="455" y="98"/>
      <point x="471" y="139"/>
      <point x="471" y="186" type="curve" smooth="yes"/>
      <point x="471" y="218"/>
      <point x="464" y="244"/>
      <point x="451" y="260" type="curve"/>
      <point x="486" y="251"/>
      <point x="507" y="246"/>
      <point x="518" y="246" type="curve" smooth="yes"/>
      <point x="578" y="246"/>
      <point x="630" y="269"/>
      <point x="651" y="306" type="curve" smooth="yes"/>
      <point x="679" y="357"/>
      <point x="724" y="386"/>
      <point x="764" y="386" type="curve" smooth="yes"/>
      <point x="792" y="386"/>
      <point x="816" y="372"/>
      <point x="835" y="345" type="curve" smooth="yes"/>
      <point x="854" y="318"/>
      <point x="864" y="285"/>
      <point x="864" y="246" type="curve" smooth="yes"/>
      <point x="864" y="208"/>
      <point x="855" y="175"/>
      <point x="837" y="148" type="curve" smooth="yes"/>
      <point x="819" y="121"/>
      <point x="797" y="107"/>
      <point x="771" y="107" type="curve" smooth="yes"/>
      <point x="712" y="107"/>
      <point x="664" y="154"/>
      <point x="664" y="213" type="curve"/>
      <point x="605" y="213" type="line"/>
      <point x="605" y="165"/>
      <point x="621" y="124"/>
      <point x="653" y="90" type="curve"/>
      <point x="686" y="57"/>
      <point x="725" y="40"/>
      <point x="771" y="40" type="curve" smooth="yes"/>
      <point x="816" y="40"/>
      <point x="853" y="60"/>
      <point x="884" y="100" type="curve" smooth="yes"/>
      <point x="915" y="141"/>
      <point x="931" y="189"/>
      <point x="931" y="246" type="curve" smooth="yes"/>
      <point x="931" y="303"/>
      <point x="915" y="352"/>
      <point x="882" y="392" type="curve"/>
      <point x="850" y="433"/>
      <point x="811" y="453"/>
      <point x="764" y="453" type="curve" smooth="yes"/>
      <point x="704" y="453"/>
      <point x="650" y="425"/>
      <point x="625" y="380" type="curve" smooth="yes"/>
      <point x="601" y="339"/>
      <point x="561" y="313"/>
      <point x="518" y="313" type="curve" smooth="yes"/>
      <point x="477" y="313"/>
      <point x="435" y="325"/>
      <point x="398" y="346" type="curve"/>
      <point x="435" y="378"/>
      <point x="458" y="420"/>
      <point x="458" y="459" type="curve" smooth="yes"/>
      <point x="458" y="506"/>
      <point x="441" y="545"/>
      <point x="408" y="578" type="curve" smooth="yes"/>
      <point x="375" y="611"/>
      <point x="335" y="627"/>
      <point x="288" y="627" type="curve" smooth="yes"/>
      <point x="220" y="627"/>
      <point x="150" y="578"/>
      <point x="101" y="501" type="curve"/>
      <point x="152" y="459" type="line"/>
      <point x="192" y="522"/>
      <point x="243" y="559"/>
      <point x="286" y="559" type="curve" smooth="yes"/>
      <point x="343" y="559"/>
      <point x="390" y="515"/>
      <point x="390" y="459" type="curve" smooth="yes"/>
    </contour>
  </outline>
</glyph>
<glyph name="anudatta-deva" format="1">
  <advance width="0"/>
  <unicode hex="0952"/>
  <outline>
    <contour>
      <point x="-111" y="-159" type="line"/>
      <point x="-111" y="-99" type="line"/>
      <point x="-637" y="-99" type="line"/>
      <point x="-637" y="-159" type="line"/>
    </contour>
  </outline>
</glyph>
<glyph name="qa-deva" format="1">
  <advance width="753"/>
  <unicode hex="0958"/>
  <outline>
    <contour>
      <point x="257" y="40" type="line"/>
      <point x="204" y="93" type="line"/>
      <point x="150" y="40" type="line"/>
      <point x="204" y="-13" type="line"/>
    </contour>
    <contour>
      <point x="350" y="606" type="line"/>
      <point x="350" y="300" type="line"/>
      <point x="315" y="237"/>
      <point x="270" y="200"/>
      <point x="230" y="200" type="curve" smooth="yes"/>
      <point x="195" y="200"/>
      <point x="166" y="211"/>
      <point x="141" y="233" type="curve" smooth="yes"/>
      <point x="116" y="255"/>
      <point x="104" y="282"/>
      <point x="104" y="313" type="curve" smooth="yes"/>
      <point x="104" y="346"/>
      <point x="117" y="374"/>
      <point x="143" y="397" type="curve" smooth="yes"/>
      <point x="169" y="421"/>
      <point x="200" y="433"/>
      <point x="237" y="433" type="curve" smooth="yes"/>
      <point x="260" y="433"/>
      <point x="276" y="430"/>
      <point x="284" y="426" type="curve"/>
      <point x="304" y="486" type="line"/>
      <point x="293" y="495"/>
      <point x="269" y="499"/>
      <point x="237" y="499" type="curve" smooth="yes"/>
      <point x="182" y="499"/>
      <point x="134" y="481"/>
      <point x="95" y="444" type="curve" smooth="yes"/>
      <point x="56" y="408"/>
      <point x="37" y="364"/>
      <point x="37" y="313" type="curve" smooth="yes"/>
      <point x="37" y="265"/>
      <point x="56" y="224"/>
      <point x="93" y="190" type="curve"/>
      <point x="131" y="157"/>
      <point x="177" y="140"/>
      <point x="230" y="140" type="curve" smooth="yes"/>
      <point x="271" y="140"/>
      <point x="315" y="163"/>
      <point x="350" y="206" type="curve"/>
      <point x="350" y="0" type="line"/>
      <point x="417" y="0" type="line"/>
      <point x="417" y="313" type="line"/>
      <point x="436" y="384"/>
      <point x="493" y="433"/>
      <point x="557" y="433" type="curve" smooth="yes"/>
      <point x="605" y="433"/>
      <point x="643" y="385"/>
      <point x="643" y="326" type="curve" smooth="yes"/>
      <point x="643" y="265"/>
      <point x="601" y="193"/>
      <point x="530" y="133" type="curve"/>
      <point x="577" y="87" type="line"/>
      <point x="661" y="158"/>
      <point x="710" y="245"/>
      <point x="710" y="326" type="curve" smooth="yes"/>
      <point x="710" y="374"/>
      <point x="695" y="415"/>
      <point x="665" y="448" type="curve"/>
      <point x="636" y="482"/>
      <point x="600" y="499"/>
      <point x="557" y="499" type="curve" smooth="yes"/>
      <point x="496" y="499"/>
      <point x="444" y="473"/>
      <point x="417" y="426" type="curve"/>
      <point x="417" y="606" type="line"/>
      <point x="767" y="606" type="line"/>
      <point x="767" y="666" type="line"/>
      <point x="-13" y="666" type="line"/>
      <point x="-13" y="606" type="line"/>
    </contour>
    <contour>
      <point x="385" y="664" type="move" name="mark0"/>
    </contour>
  </outline>
</glyph>
<glyph name="za-deva" format="1">
  <advance width="733"/>
  <unicode hex="095B"/>
  <outline>
    <contour>
      <point x="241" y="40" type="line"/>
      <point x="181" y="93" type="line"/>
      <point x="121" y="40" type="line"/>
      <point x="181" y="-13" type="line"/>
    </contour>
    <contour>
      <point x="567" y="606" type="line"/>
      <point x="567" y="459" type="line"/>
      <point x="274" y="459" type="line"/>
      <point x="349" y="371"/>
      <point x="387" y="309"/>
      <point x="387" y="273" type="curve" smooth="yes"/>
      <point x="387" y="225"/>
      <point x="352" y="186"/>
      <point x="308" y="186" type="curve" smooth="yes"/>
      <point x="268" y="186"/>
      <point x="227" y="212"/>
      <point x="184" y="263" type="curve" smooth="yes"/>
      <point x="142" y="314"/>
      <point x="106" y="382"/>
      <point x="75" y="466" type="curve"/>
      <point x="21" y="433" type="line"/>
      <point x="55" y="340"/>
      <point x="98" y="266"/>
      <point x="150" y="210" type="curve" smooth="yes"/>
      <point x="202" y="155"/>
      <point x="255" y="127"/>
      <point x="308" y="127" type="curve" smooth="yes"/>
      <point x="349" y="127"/>
      <point x="383" y="141"/>
      <point x="411" y="169" type="curve" smooth="yes"/>
      <point x="440" y="198"/>
      <point x="454" y="232"/>
      <point x="454" y="273" type="curve" smooth="yes"/>
      <point x="454" y="300"/>
      <point x="433" y="344"/>
      <point x="394" y="399" type="curve"/>
      <point x="567" y="399" type="line"/>
      <point x="567" y="0" type="line"/>
      <point x="634" y="0" type="line"/>
      <point x="634" y="606" type="line"/>
      <point x="747" y="606" type="line"/>
      <point x="747" y="666" type="line"/>
      <point x="-13" y="666" type="line"/>
      <point x="-13" y="606" type="line"/>
    </contour>
    <contour>
      <point x="603" y="664" type="move" name="mark0"/>
    </contour>
  </outline>
</glyph>
<glyph name="rrVocalic-deva" format="1">
  <advance width="882"/>
  <unicode hex="0960"/>
  <outline>
    <contour>
      <point x="431" y="606" type="line"/>
      <point x="431" y="326" type="line"/>
      <point x="325" y="433" type="line"/>
      <point x="278" y="472"/>
      <point x="237" y="493"/>
      <point x="205" y="493" type="curve" smooth="yes"/>
      <point x="153" y="493"/>
      <point x="87" y="464"/>
      <point x="12" y="413" type="curve"/>
      <point x="52" y="366" type="line"/>
      <point x="115" y="409"/>
      <point x="168" y="433"/>
      <point x="205" y="433" type="curve" smooth="yes"/>
      <point x="232" y="433"/>
      <point x="266" y="410"/>
      <point x="298" y="373" type="curve"/>
      <point x="378" y="300" type="line"/>
      <point x="119" y="180" type="line"/>
      <point x="158" y="127" type="line"/>
      <point x="431" y="253" type="line"/>
      <point x="431" y="0" type="line"/>
      <point x="498" y="0" type="line"/>
      <point x="498" y="306" type="line"/>
      <point x="631" y="366" type="line"/>
      <point x="658" y="326" type="line"/>
      <point x="605" y="302"/>
      <point x="571" y="253"/>
      <point x="571" y="200" type="curve" smooth="yes"/>
      <point x="571" y="155"/>
      <point x="588" y="117"/>
      <point x="621" y="86" type="curve" smooth="yes"/>
      <point x="655" y="55"/>
      <point x="696" y="40"/>
      <point x="744" y="40" type="curve" smooth="yes"/>
      <point x="780" y="40"/>
      <point x="824" y="52"/>
      <point x="871" y="73" type="curve"/>
      <point x="838" y="133" type="line"/>
      <point x="801" y="112"/>
      <point x="768" y="100"/>
      <point x="744" y="100" type="curve" smooth="yes"/>
      <point x="685" y="100"/>
      <point x="638" y="144"/>
      <point x="638" y="200" type="curve" smooth="yes"/>
      <point x="638" y="245"/>
      <point x="683" y="289"/>
      <point x="744" y="300" type="curve"/>
      <point x="698" y="386" type="line"/>
      <point x="714" y="395"/>
      <point x="724" y="418"/>
      <point x="724" y="446" type="curve" smooth="yes"/>
      <point x="724" y="477"/>
      <point x="699" y="499"/>
      <point x="664" y="499" type="curve" smooth="yes"/>
      <point x="628" y="499"/>
      <point x="600" y="460"/>
      <point x="611" y="419" type="curve"/>
      <point x="498" y="366" type="line"/>
      <point x="498" y="606" type="line"/>
      <point x="896" y="606" type="line"/>
      <point x="896" y="666" type="line"/>
      <point x="-13" y="666" type="line"/>
      <point x="-13" y="606" type="line"/>
    </contour>
    <contour>
      <point x="467" y="666" type="move" name="mark0"/>
    </contour>
  </outline>
</glyph>
<glyph name="lVocalicMatra-deva" format="1">
  <advance width="0"/>
  <unicode hex="0962"/>
  <outline>
    <contour>
      <point x="-198" y="-261" type="line"/>
      <point x="-271" y="-230"/>
      <point x="-318" y="-172"/>
      <point x="-318" y="-112" type="curve" smooth="yes"/>
      <point x="-318" y="-64"/>
      <point x="-286" y="-24"/>
      <point x="-246" y="-24" type="curve" smooth="yes"/>
      <point x="-214" y="-24"/>
      <point x="-184" y="-41"/>
      <point x="-168" y="-68" type="curve"/>
      <point x="-179" y="-89"/>
      <point x="-187" y="-113"/>
      <point x="-192" y="-136" type="curve"/>
      <point x="-149" y="-156" type="line"/>
      <point x="-132" y="-80"/>
      <point x="-87" y="-24"/>
      <point x="-43" y="-24" type="curve" smooth="yes"/>
      <point x="-2" y="-24"/>
      <point x="31" y="-72"/>
      <point x="31" y="-132" type="curve" smooth="yes"/>
      <point x="31" y="-181"/>
      <point x="-1" y="-223"/>
      <point x="-45" y="-230" type="curve" smooth="yes"/>
      <point x="-106" y="-241"/>
      <point x="-149" y="-293"/>
      <point x="-149" y="-356" type="curve" smooth="yes"/>
      <point x="-149" y="-387"/>
      <point x="-137" y="-415"/>
      <point x="-113" y="-438" type="curve" smooth="yes"/>
      <point x="-89" y="-461"/>
      <point x="-60" y="-473"/>
      <point x="-27" y="-473" type="curve" smooth="yes"/>
      <point x="10" y="-473"/>
      <point x="48" y="-461"/>
      <point x="80" y="-438" type="curve"/>
      <point x="64" y="-394" type="line"/>
      <point x="41" y="-410"/>
      <point x="9" y="-419"/>
      <point x="-27" y="-419" type="curve" smooth="yes"/>
      <point x="-66" y="-419"/>
      <point x="-96" y="-391"/>
      <point x="-96" y="-356" type="curve" smooth="yes"/>
      <point x="-96" y="-320"/>
      <point x="-67" y="-288"/>
      <point x="-27" y="-277" type="curve"/>
      <point x="40" y="-261"/>
      <point x="84" y="-201"/>
      <point x="84" y="-132" type="curve" smooth="yes"/>
      <point x="84" y="-87"/>
      <point x="71" y="-49"/>
      <point x="46" y="-18" type="curve" smooth="yes"/>
      <point x="21" y="13"/>
      <point x="-8" y="29"/>
      <point x="-43" y="29" type="curve" smooth="yes"/>
      <point x="-86" y="29"/>
      <point x="-124" y="11"/>
      <point x="-145" y="-21" type="curve"/>
      <point x="-168" y="11"/>
      <point x="-206" y="29"/>
      <point x="-246" y="29" type="curve" smooth="yes"/>
      <point x="-281" y="29"/>
      <point x="-310" y="15"/>
      <point x="-335" y="-12" type="curve" smooth="yes"/>
      <point x="-360" y="-39"/>
      <point x="-372" y="-73"/>
      <point x="-372" y="-112" type="curve" smooth="yes"/>
      <point x="-372" y="-151"/>
      <point x="-358" y="-188"/>
      <point x="-330" y="-223" type="curve" smooth="yes"/>
      <point x="-302" y="-259"/>
      <point x="-264" y="-287"/>
      <point x="-217" y="-306" type="curve"/>
    </contour>
    <contour>
      <point x="-141" y="37" type="move" name="_mark0"/>
    </contour>
  </outline>
</glyph>
<glyph name="danda-deva" format="1">
  <advance width="366"/>
  <unicode hex="0964"/>
  <outline>
    <contour>
      <point x="266" y="0" type="line"/>
      <point x="266" y="666" type="line"/>
      <point x="200" y="666" type="line"/>
      <point x="200" y="0" type="line"/>
    </contour>
  </outline>
</glyph>
<glyph name="zero-deva" format="1">
  <advance width="665"/>
  <unicode hex="0966"/>
  <outline>
    <contour>
      <point x="182" y="248"/>
      <point x="166" y="287"/>
      <point x="166" y="333" type="curve" smooth="yes"/>
      <point x="166" y="379"/>
      <point x="182" y="418"/>
      <point x="215" y="450" type="curve" smooth="yes"/>
      <point x="248" y="483"/>
      <point x="287" y="499"/>
      <point x="333" y="499" type="curve" smooth="yes"/>
      <point x="379" y="499"/>
      <point x="418" y="483"/>
      <point x="450" y="450" type="curve"/>
      <point x="483" y="418"/>
      <point x="499" y="379"/>
      <point x="499" y="333" type="curve" smooth="yes"/>
      <point x="499" y="287"/>
      <point x="483" y="248"/>
      <point x="450" y="215" type="curve" smooth="yes"/>
      <point x="418" y="182"/>
      <point x="379" y="166"/>
      <point x="333" y="166" type="curve" smooth="yes"/>
      <point x="287" y="166"/>
      <point x="248" y="182"/>
      <point x="215" y="215" type="curve" smooth="yes"/>
    </contour>
    <contour>
      <point x="543" y="214"/>
      <point x="566" y="269"/>
      <point x="566" y="333" type="curve" smooth="yes"/>
      <point x="566" y="397"/>
      <point x="543" y="452"/>
      <point x="497" y="497" type="curve"/>
      <point x="452" y="543"/>
      <point x="397" y="566"/>
      <point x="333" y="566" type="curve" smooth="yes"/>
      <point x="269" y="566"/>
      <point x="214" y="543"/>
      <point x="168" y="497" type="curve" smooth="yes"/>
      <point x="123" y="452"/>
      <point x="100" y="397"/>
      <point x="100" y="333" type="curve" smooth="yes"/>
      <point x="100" y="269"/>
      <point x="123" y="214"/>
      <point x="168" y="168" type="curve"/>
      <point x="214" y="123"/>
      <point x="269" y="100"/>
      <point x="333" y="100" type="curve" smooth="yes"/>
      <point x="397" y="100"/>
      <point x="452" y="123"/>
      <point x="497" y="168" type="curve" smooth="yes"/>
    </contour>
  </outline>
</glyph>
<glyph name="one-deva" format="1">
  <advance width="665"/>
  <unicode hex="0967"/>
  <outline>
    <contour>
      <point x="297" y="399"/>
      <point x="272" y="411"/>
      <point x="251" y="434" type="curve" smooth="yes"/>
      <point x="230" y="458"/>
      <point x="220" y="486"/>
      <point x="220" y="519" type="curve" smooth="yes"/>
      <point x="220" y="554"/>
      <point x="230" y="583"/>
      <point x="251" y="608" type="curve" smooth="yes"/>
      <point x="272" y="633"/>
      <point x="297" y="646"/>
      <point x="326" y="646" type="curve" smooth="yes"/>
      <point x="357" y="646"/>
      <point x="384" y="633"/>
      <point x="406" y="608" type="curve" smooth="yes"/>
      <point x="428" y="583"/>
      <point x="439" y="554"/>
      <point x="439" y="519" type="curve" smooth="yes"/>
      <point x="439" y="486"/>
      <point x="428" y="458"/>
      <point x="406" y="434" type="curve" smooth="yes"/>
      <point x="384" y="411"/>
      <point x="357" y="399"/>
      <point x="326" y="399" type="curve" smooth="yes"/>
    </contour>
    <contour>
      <point x="513" y="-33" type="line"/>
      <point x="513" y="499" type="line" smooth="yes"/>
      <point x="513" y="620"/>
      <point x="439" y="699"/>
      <point x="326" y="699" type="curve" smooth="yes"/>
      <point x="278" y="699"/>
      <point x="237" y="681"/>
      <point x="203" y="646" type="curve" smooth="yes"/>
      <point x="170" y="611"/>
      <point x="153" y="569"/>
      <point x="153" y="519" type="curve" smooth="yes"/>
      <point x="153" y="470"/>
      <point x="170" y="427"/>
      <point x="203" y="392" type="curve" smooth="yes"/>
      <point x="237" y="357"/>
      <point x="278" y="340"/>
      <point x="326" y="340" type="curve" smooth="yes"/>
      <point x="373" y="340"/>
      <point x="415" y="357"/>
      <point x="446" y="386" type="curve"/>
      <point x="446" y="-33" type="line"/>
    </contour>
  </outline>
</glyph>
<glyph name="five-deva" format="1">
  <advance width="665"/>
  <unicode hex="096B"/>
  <outline>
    <contour>
      <point x="466" y="-87" type="line"/>
      <point x="529" y="-51"/>
      <point x="566" y="0"/>
      <point x="566" y="47" type="curve" smooth="yes"/>
      <point x="566" y="68"/>
      <point x="558" y="105"/>
      <point x="539" y="153" type="curve"/>
      <point x="479" y="353" type="line"/>
      <point x="514" y="394"/>
      <point x="533" y="436"/>
      <point x="533" y="473" type="curve" smooth="yes"/>
      <point x="533" y="532"/>
      <point x="503" y="579"/>
      <point x="466" y="579" type="curve" smooth="yes"/>
      <point x="422" y="579"/>
      <point x="386" y="532"/>
      <point x="386" y="473" type="curve" smooth="yes"/>
      <point x="386" y="417"/>
      <point x="391" y="379"/>
      <point x="399" y="360" type="curve"/>
      <point x="375" y="341"/>
      <point x="345" y="333"/>
      <point x="313" y="333" type="curve" smooth="yes"/>
      <point x="272" y="333"/>
      <point x="238" y="348"/>
      <point x="209" y="379" type="curve" smooth="yes"/>
      <point x="180" y="410"/>
      <point x="166" y="448"/>
      <point x="166" y="493" type="curve" smooth="yes"/>
      <point x="166" y="565"/>
      <point x="182" y="633"/>
      <point x="213" y="686" type="curve"/>
      <point x="153" y="712" type="line"/>
      <point x="118" y="652"/>
      <point x="100" y="576"/>
      <point x="100" y="493" type="curve" smooth="yes"/>
      <point x="100" y="432"/>
      <point x="121" y="380"/>
      <point x="162" y="337" type="curve" smooth="yes"/>
      <point x="204" y="294"/>
      <point x="254" y="273"/>
      <point x="313" y="273" type="curve" smooth="yes"/>
      <point x="352" y="273"/>
      <point x="390" y="285"/>
      <point x="419" y="306" type="curve"/>
      <point x="466" y="153" type="line"/>
      <point x="483" y="105"/>
      <point x="493" y="68"/>
      <point x="493" y="47" type="curve" smooth="yes"/>
      <point x="493" y="23"/>
      <point x="470" y="-6"/>
      <point x="433" y="-33" type="curve"/>
      <point x="466" y="-87" type="line"/>
    </contour>
  </outline>
</glyph>
<glyph name="eight-deva" format="1">
  <advance width="665"/>
  <unicode hex="096E"/>
  <outline>
    <contour>
      <point x="422" y="0"/>
      <point x="502" y="44"/>
      <point x="566" y="120" type="curve"/>
      <point x="519" y="166" type="line"/>
      <point x="463" y="99"/>
      <point x="399" y="60"/>
      <point x="346" y="60" type="curve" smooth="yes"/>
      <point x="298" y="60"/>
      <point x="257" y="75"/>
      <point x="223" y="104" type="curve"/>
      <point x="190" y="134"/>
      <point x="173" y="170"/>
      <point x="173" y="213" type="curve" smooth="yes"/>
      <point x="173" y="250"/>
      <point x="188" y="286"/>
      <point x="213" y="313" type="curve" smooth="yes"/>
      <point x="519" y="633" type="line"/>
      <point x="473" y="679" type="line"/>
      <point x="160" y="353" type="line"/>
      <point x="120" y="314"/>
      <point x="100" y="262"/>
      <point x="100" y="213" type="curve" smooth="yes"/>
      <point x="100" y="154"/>
      <point x="124" y="104"/>
      <point x="172" y="62" type="curve" smooth="yes"/>
      <point x="220" y="21"/>
      <point x="278" y="0"/>
      <point x="346" y="0" type="curve" smooth="yes"/>
    </contour>
  </outline>
</glyph>
<glyph name="oe-deva" format="1">
  <advance width="768"/>
  <unicode hex="0973"/>
  <outline>
    <contour>
      <point x="602" y="820" type="line"/>
      <point x="602" y="666" type="line"/>
      <point x="482" y="666" type="line"/>
      <point x="482" y="606" type="line"/>
      <point x="602" y="606" type="line"/>
      <point x="602" y="366" type="line"/>
      <point x="565" y="345"/>
      <point x="535" y="333"/>
      <point x="515" y="333" type="curve" smooth="yes"/>
      <point x="483" y="333"/>
      <point x="430" y="354"/>
      <point x="362" y="393" type="curve"/>
      <point x="399" y="425"/>
      <point x="422" y="468"/>
      <point x="422" y="513" type="curve" smooth="yes"/>
      <point x="422" y="556"/>
      <point x="408" y="592"/>
      <point x="379" y="621" type="curve"/>
      <point x="351" y="651"/>
      <point x="317" y="666"/>
      <point x="276" y="666" type="curve" smooth="yes"/>
      <point x="192" y="666"/>
      <point x="116" y="627"/>
      <point x="69" y="559" type="curve"/>
      <point x="116" y="513" type="line"/>
      <point x="165" y="572"/>
      <point x="224" y="606"/>
      <point x="276" y="606" type="curve" smooth="yes"/>
      <point x="319" y="606"/>
      <point x="354" y="564"/>
      <point x="354" y="513" type="curve" smooth="yes"/>
      <point x="354" y="485"/>
      <point x="339" y="459"/>
      <point x="308" y="434" type="curve" smooth="yes"/>
      <point x="277" y="410"/>
      <point x="242" y="396"/>
      <point x="202" y="393" type="curve"/>
      <point x="229" y="333" type="line"/>
      <point x="254" y="342"/>
      <point x="276" y="346"/>
      <point x="296" y="346" type="curve" smooth="yes"/>
      <point x="327" y="346"/>
      <point x="353" y="334"/>
      <point x="375" y="309" type="curve" smooth="yes"/>
      <point x="398" y="284"/>
      <point x="409" y="254"/>
      <point x="409" y="218" type="curve" smooth="yes"/>
      <point x="409" y="159"/>
      <point x="364" y="113"/>
      <point x="309" y="113" type="curve" smooth="yes"/>
      <point x="222" y="113"/>
      <point x="136" y="192"/>
      <point x="72" y="328" type="curve"/>
      <point x="23" y="300" type="line"/>
      <point x="98" y="140"/>
      <point x="202" y="47"/>
      <point x="309" y="47" type="curve" smooth="yes"/>
      <point x="355" y="47"/>
      <point x="394" y="64"/>
      <point x="426" y="97" type="curve" smooth="yes"/>
      <point x="459" y="131"/>
      <point x="475" y="172"/>
      <point x="475" y="220" type="curve" smooth="yes"/>
      <point x="475" y="252"/>
      <point x="466" y="278"/>
      <point x="449" y="293" type="curve"/>
      <point x="466" y="281"/>
      <point x="498" y="273"/>
      <point x="535" y="273" type="curve" smooth="yes"/>
      <point x="559" y="273"/>
      <point x="581" y="281"/>
      <point x="602" y="300" type="curve"/>
      <point x="602" y="0" type="line"/>
      <point x="668" y="0" type="line"/>
      <point x="668" y="606" type="line"/>
      <point x="782" y="606" type="line"/>
      <point x="782" y="666" type="line"/>
      <point x="668" y="666" type="line"/>
      <point x="668" y="820" type="line"/>
    </contour>
    <contour>
      <point x="636" y="664" type="move" name="mark0"/>
    </contour>
  </outline>
</glyph>
<glyph name="ooe-deva" format="1">
  <advance width="1042"/>
  <unicode hex="0974"/>
  <outline>
    <contour>
      <point x="871" y="820" type="line"/>
      <point x="871" y="666" type="line"/>
      <point x="483" y="666" type="line"/>
      <point x="483" y="606" type="line"/>
      <point x="603" y="606" type="line"/>
      <point x="603" y="366" type="line"/>
      <point x="574" y="345"/>
      <point x="544" y="333"/>
      <point x="523" y="333" type="curve" smooth="yes"/>
      <point x="486" y="333"/>
      <point x="431" y="354"/>
      <point x="364" y="393" type="curve"/>
      <point x="400" y="425"/>
      <point x="423" y="471"/>
      <point x="423" y="519" type="curve" smooth="yes"/>
      <point x="423" y="562"/>
      <point x="407" y="598"/>
      <point x="376" y="627" type="curve" smooth="yes"/>
      <point x="345" y="657"/>
      <point x="308" y="672"/>
      <point x="264" y="672" type="curve" smooth="yes"/>
      <point x="192" y="672"/>
      <point x="120" y="631"/>
      <point x="71" y="559" type="curve"/>
      <point x="117" y="513" type="line"/>
      <point x="166" y="572"/>
      <point x="221" y="606"/>
      <point x="264" y="606" type="curve" smooth="yes"/>
      <point x="315" y="606"/>
      <point x="357" y="567"/>
      <point x="357" y="519" type="curve" smooth="yes"/>
      <point x="357" y="490"/>
      <point x="341" y="462"/>
      <point x="310" y="436" type="curve" smooth="yes"/>
      <point x="279" y="411"/>
      <point x="244" y="396"/>
      <point x="204" y="393" type="curve"/>
      <point x="230" y="333" type="line"/>
      <point x="255" y="342"/>
      <point x="277" y="346"/>
      <point x="297" y="346" type="curve" smooth="yes"/>
      <point x="328" y="346"/>
      <point x="355" y="334"/>
      <point x="377" y="309" type="curve" smooth="yes"/>
      <point x="399" y="284"/>
      <point x="410" y="255"/>
      <point x="410" y="220" type="curve" smooth="yes"/>
      <point x="410" y="161"/>
      <point x="366" y="113"/>
      <point x="310" y="113" type="curve" smooth="yes"/>
      <point x="225" y="113"/>
      <point x="138" y="196"/>
      <point x="71" y="340" type="curve"/>
      <point x="24" y="300" type="line"/>
      <point x="99" y="140"/>
      <point x="203" y="47"/>
      <point x="310" y="47" type="curve" smooth="yes"/>
      <point x="357" y="47"/>
      <point x="396" y="64"/>
      <point x="428" y="97" type="curve" smooth="yes"/>
      <point x="461" y="131"/>
      <point x="477" y="172"/>
      <point x="477" y="220" type="curve" smooth="yes"/>
      <point x="477" y="252"/>
      <point x="467" y="278"/>
      <point x="450" y="293" type="curve"/>
      <point x="467" y="281"/>
      <point x="500" y="273"/>
      <point x="537" y="273" type="curve" smooth="yes"/>
      <point x="560" y="273"/>
      <point x="582" y="281"/>
      <point x="603" y="300" type="curve"/>
      <point x="603" y="0" type="line"/>
      <point x="670" y="0" type="line"/>
      <point x="670" y="606" type="line"/>
      <point x="876" y="606" type="line"/>
      <point x="876" y="0" type="line"/>
      <point x="943" y="0" type="line"/>
      <point x="943" y="606" type="line"/>
      <point x="1056" y="606" type="line"/>
      <point x="1056" y="666" type="line"/>
      <point x="938" y="666" type="line"/>
      <point x="937" y="820" type="line"/>
    </contour>
  </outline>
</glyph>
<glyph name="ddda-deva" format="1">
  <advance width="717"/>
  <unicode hex="097E"/>
  <outline>
    <contour>
      <point x="463" y="606" type="line"/>
      <point x="463" y="499" type="line"/>
      <point x="304" y="499" type="line" smooth="yes"/>
      <point x="248" y="499"/>
      <point x="204" y="461"/>
      <point x="204" y="413" type="curve" smooth="yes"/>
      <point x="204" y="384"/>
      <point x="225" y="346"/>
      <point x="266" y="301" type="curve" smooth="yes"/>
      <point x="308" y="256"/>
      <point x="343" y="233"/>
      <point x="370" y="233" type="curve" smooth="yes"/>
      <point x="385" y="233"/>
      <point x="406" y="238"/>
      <point x="433" y="249" type="curve" smooth="yes"/>
      <point x="460" y="260"/>
      <point x="482" y="266"/>
      <point x="497" y="266" type="curve" smooth="yes"/>
      <point x="514" y="266"/>
      <point x="530" y="247"/>
      <point x="530" y="226" type="curve" smooth="yes"/>
      <point x="530" y="185"/>
      <point x="517" y="151"/>
      <point x="490" y="122" type="curve" smooth="yes"/>
      <point x="464" y="94"/>
      <point x="433" y="80"/>
      <point x="397" y="80" type="curve" smooth="yes"/>
      <point x="344" y="80"/>
      <point x="289" y="104"/>
      <point x="231" y="153" type="curve" smooth="yes"/>
      <point x="173" y="202"/>
      <point x="120" y="268"/>
      <point x="71" y="353" type="curve"/>
      <point x="17" y="313" type="line"/>
      <point x="70" y="220"/>
      <point x="131" y="147"/>
      <point x="199" y="93" type="curve" smooth="yes"/>
      <point x="267" y="40"/>
      <point x="333" y="13"/>
      <point x="397" y="13" type="curve" smooth="yes"/>
      <point x="452" y="13"/>
      <point x="499" y="34"/>
      <point x="538" y="75" type="curve" smooth="yes"/>
      <point x="577" y="117"/>
      <point x="597" y="167"/>
      <point x="597" y="226" type="curve" smooth="yes"/>
      <point x="597" y="285"/>
      <point x="552" y="333"/>
      <point x="497" y="333" type="curve" smooth="yes"/>
      <point x="482" y="333"/>
      <point x="460" y="327"/>
      <point x="433" y="316" type="curve" smooth="yes"/>
      <point x="406" y="305"/>
      <point x="385" y="300"/>
      <point x="370" y="300" type="curve" smooth="yes"/>
      <point x="353" y="300"/>
      <point x="332" y="314"/>
      <point x="307" y="342" type="curve" smooth="yes"/>
      <point x="282" y="371"/>
      <point x="270" y="394"/>
      <point x="270" y="413" type="curve" smooth="yes"/>
      <point x="270" y="426"/>
      <point x="285" y="439"/>
      <point x="304" y="439" type="curve" smooth="yes"/>
      <point x="530" y="439" type="line"/>
      <point x="530" y="606" type="line"/>
      <point x="731" y="606" type="line"/>
      <point x="731" y="666" type="line"/>
      <point x="-13" y="666" type="line"/>
      <point x="-13" y="606" type="line"/>
    </contour>
    <contour>
      <point x="668" y="-60" type="line"/>
      <point x="668" y="0" type="line"/>
      <point x="22" y="0" type="line"/>
      <point x="22" y="-60" type="line"/>
    </contour>
    <contour>
      <point x="497" y="666" type="move" name="mark0"/>
    </contour>
  </outline>
</glyph>
<glyph name="endash" format="1">
  <advance width="590"/>
  <unicode hex="2013"/>
  <outline>
    <contour>
      <point x="66" y="355" type="line"/>
      <point x="66" y="285" type="line"/>
      <point x="521" y="289" type="line"/>
      <point x="521" y="355" type="line"/>
    </contour>
  </outline>
</glyph>
<glyph name="dagger" format="1">
  <advance width="512"/>
  <unicode hex="2020"/>
  <outline>
    <contour>
      <point x="220" y="760"/>
      <point x="208" y="719"/>
      <point x="211" y="687" type="curve" smooth="yes"/>
      <point x="218" y="613"/>
      <point x="236" y="521"/>
      <point x="247" y="461" type="curve"/>
      <point x="198" y="471"/>
      <point x="148" y="481"/>
      <point x="99" y="488" type="curve" smooth="yes"/>
      <point x="67" y="492"/>
      <point x="26" y="490"/>
      <point x="26" y="453" type="curve" smooth="yes"/>
      <point x="26" y="416"/>
      <point x="67" y="414"/>
      <point x="99" y="418" type="curve" smooth="yes"/>
      <point x="147" y="424"/>
      <point x="197" y="435"/>
      <point x="246" y="445" type="curve"/>
      <point x="231" y="371"/>
      <point x="218" y="316"/>
      <point x="203" y="280" type="curve"/>
      <point x="226" y="104"/>
      <point x="231" y="-86"/>
      <point x="242" y="-271" type="curve"/>
      <point x="270" y="-271" type="line"/>
      <point x="281" y="-86"/>
      <point x="286" y="104"/>
      <point x="309" y="280" type="curve"/>
      <point x="294" y="316"/>
      <point x="281" y="371"/>
      <point x="266" y="444" type="curve"/>
      <point x="315" y="435"/>
      <point x="365" y="424"/>
      <point x="413" y="418" type="curve" smooth="yes"/>
      <point x="445" y="414"/>
      <point x="486" y="416"/>
      <point x="486" y="453" type="curve" smooth="yes"/>
      <point x="486" y="490"/>
      <point x="445" y="492"/>
      <point x="413" y="488" type="curve" smooth="yes"/>
      <point x="364" y="481"/>
      <point x="314" y="471"/>
      <point x="265" y="461" type="curve"/>
      <point x="276" y="521"/>
      <point x="294" y="613"/>
      <point x="301" y="687" type="curve" smooth="yes"/>
      <point x="304" y="719"/>
      <point x="294" y="760"/>
      <point x="257" y="760" type="curve" smooth="yes"/>
    </contour>
  </outline>
</glyph>
<glyph name="Euro" format="1">
  <advance width="760"/>
  <unicode hex="20AC"/>
  <outline>
    <contour>
      <point x="283" y="716"/>
      <point x="177" y="596"/>
      <point x="140" y="454" type="curve"/>
      <point x="49" y="454" type="line"/>
      <point x="35" y="394" type="line"/>
      <point x="128" y="394" type="line"/>
      <point x="125" y="366"/>
      <point x="125" y="336"/>
      <point x="127" y="308" type="curve"/>
      <point x="49" y="308" type="line"/>
      <point x="35" y="248" type="line"/>
      <point x="134" y="249" type="line"/>
      <point x="165" y="95"/>
      <point x="276" y="-16"/>
      <point x="445" y="-16" type="curve" smooth="yes"/>
      <point x="527" y="-16"/>
      <point x="632" y="10"/>
      <point x="718" y="129" type="curve"/>
      <point x="692" y="150" type="line"/>
      <point x="638" y="75"/>
      <point x="558" y="39"/>
      <point x="471" y="39" type="curve" smooth="yes"/>
      <point x="353" y="39"/>
      <point x="261" y="120"/>
      <point x="229" y="249" type="curve"/>
      <point x="467" y="250" type="line"/>
      <point x="495" y="306" type="line"/>
      <point x="219" y="307" type="line"/>
      <point x="217" y="335"/>
      <point x="217" y="367"/>
      <point x="219" y="395" type="curve"/>
      <point x="536" y="396" type="line"/>
      <point x="563" y="452" type="line"/>
      <point x="227" y="454" type="line"/>
      <point x="256" y="595"/>
      <point x="350" y="674"/>
      <point x="459" y="674" type="curve" smooth="yes"/>
      <point x="574" y="674"/>
      <point x="623" y="601"/>
      <point x="637" y="506" type="curve"/>
      <point x="673" y="506" type="line"/>
      <point x="693" y="708" type="line"/>
      <point x="639" y="708" type="line"/>
      <point x="638" y="659" type="line"/>
      <point x="580" y="697"/>
      <point x="524" y="716"/>
      <point x="452" y="716" type="curve" smooth="yes"/>
    </contour>
  </outline>
</glyph>
<glyph name="uni20BD" format="1">
  <advance width="586"/>
  <unicode hex="20BD"/>
  <outline>
    <contour>
      <point x="197" y="305" type="line"/>
      <point x="47" y="305" type="line"/>
      <point x="47" y="263" type="line"/>
      <point x="197" y="263" type="line"/>
    </contour>
    <contour>
      <point x="407" y="197" type="line"/>
      <point x="47" y="197" type="line"/>
      <point x="47" y="155" type="line"/>
      <point x="407" y="156" type="line"/>
    </contour>
    <contour>
      <point x="200" y="702"/>
      <point x="125" y="701"/>
      <point x="55" y="700" type="curve"/>
      <point x="55" y="656" type="line"/>
      <point x="127" y="660" type="line"/>
      <point x="125" y="640"/>
      <point x="124" y="615"/>
      <point x="124" y="588" type="curve" smooth="yes"/>
      <point x="124" y="156" type="line" smooth="yes"/>
      <point x="124" y="85"/>
      <point x="130" y="36"/>
      <point x="55" y="33" type="curve"/>
      <point x="55" y="0" type="line"/>
      <point x="300" y="0" type="line"/>
      <point x="300" y="45" type="line"/>
      <point x="208" y="40" type="line"/>
      <point x="210" y="57"/>
      <point x="211" y="83"/>
      <point x="211" y="119" type="curve" smooth="yes"/>
      <point x="211" y="264" type="line"/>
      <point x="224" y="263"/>
      <point x="241" y="263"/>
      <point x="247" y="263" type="curve" smooth="yes"/>
      <point x="482" y="263"/>
      <point x="542" y="404"/>
      <point x="542" y="508" type="curve" smooth="yes"/>
      <point x="542" y="636"/>
      <point x="433" y="702"/>
      <point x="278" y="702" type="curve" smooth="yes"/>
    </contour>
    <contour>
      <point x="370" y="663"/>
      <point x="445" y="601"/>
      <point x="445" y="489" type="curve" smooth="yes"/>
      <point x="445" y="372"/>
      <point x="366" y="302"/>
      <point x="276" y="302" type="curve" smooth="yes"/>
      <point x="251" y="302"/>
      <point x="236" y="302"/>
      <point x="211" y="305" type="curve"/>
      <point x="211" y="544" type="line" smooth="yes"/>
      <point x="211" y="615"/>
      <point x="205" y="663"/>
      <point x="276" y="663" type="curve" smooth="yes"/>
    </contour>
  </outline>
</glyph>
<glyph name="summation" format="1">
  <advance width="637"/>
  <unicode hex="2211"/>
  <outline>
    <contour>
      <point x="31" y="700" type="line"/>
      <point x="31" y="656" type="line"/>
      <point x="77" y="658" type="line"/>
      <point x="79" y="646"/>
      <point x="86" y="628"/>
      <point x="102" y="599" type="curve" smooth="yes"/>
      <point x="309" y="207" type="line"/>
      <point x="107" y="-146" type="line" smooth="yes"/>
      <point x="91" y="-173"/>
      <point x="63" y="-212"/>
      <point x="38" y="-211" type="curve"/>
      <point x="38" y="-255" type="line"/>
      <point x="584" y="-255" type="line"/>
      <point x="590" y="-60" type="line"/>
      <point x="556" y="-60" type="line"/>
      <point x="556" y="-178"/>
      <point x="501" y="-220"/>
      <point x="414" y="-218" type="curve" smooth="yes"/>
      <point x="119" y="-215" type="line"/>
      <point x="135" y="-193"/>
      <point x="152" y="-167"/>
      <point x="169" y="-137" type="curve" smooth="yes"/>
      <point x="384" y="245" type="line"/>
      <point x="193" y="617" type="line" smooth="yes"/>
      <point x="185" y="632"/>
      <point x="177" y="646"/>
      <point x="167" y="660" type="curve"/>
      <point x="396" y="665" type="line" smooth="yes"/>
      <point x="471" y="667"/>
      <point x="531" y="643"/>
      <point x="531" y="525" type="curve"/>
      <point x="564" y="525" type="line"/>
      <point x="559" y="700" type="line"/>
    </contour>
  </outline>
</glyph>
<glyph name="Cedilla" format="1">
  <advance width="302"/>
  <outline>
    <contour>
      <point x="84" y="8" type="line"/>
      <point x="55" y="-106" type="line"/>
      <point x="91" y="-123" type="line"/>
      <point x="121" y="-104"/>
      <point x="167" y="-100"/>
      <point x="167" y="-141" type="curve" smooth="yes"/>
      <point x="167" y="-180"/>
      <point x="113" y="-210"/>
      <point x="45" y="-222" type="curve"/>
      <point x="51" y="-260" type="line"/>
      <point x="119" y="-250"/>
      <point x="257" y="-213"/>
      <point x="257" y="-132" type="curve" smooth="yes"/>
      <point x="257" y="-92"/>
      <point x="231" y="-61"/>
      <point x="180" y="-61" type="curve" smooth="yes"/>
      <point x="164" y="-61"/>
      <point x="134" y="-65"/>
      <point x="115" y="-77" type="curve"/>
      <point x="142" y="8" type="line"/>
    </contour>
  </outline>
</glyph>
<glyph name="Circumflex" format="1">
  <advance width="470"/>
  <outline>
    <contour>
      <point x="239" y="931" type="line"/>
      <point x="45" y="789" type="line"/>
      <point x="65" y="757" type="line"/>
      <point x="235" y="844" type="line"/>
      <point x="237" y="844" type="line"/>
      <point x="403" y="756" type="line"/>
      <point x="425" y="790" type="line"/>
      <point x="241" y="931" type="line"/>
    </contour>
  </outline>
</glyph>
<glyph name=".notdef" format="1">
  <advance width="529"/>
  <outline>
    <contour>
      <point x="50" y="500" type="line"/>
      <point x="50" y="0" type="line"/>
      <point x="464" y="0" type="line"/>
      <point x="464" y="500" type="line"/>
    </contour>
    <contour>
      <point x="381" y="38" type="line"/>
      <point x="133" y="38" type="line"/>
      <point x="133" y="462" type="line"/>
      <point x="381" y="462" type="line"/>
    </contour>
  </outline>
</glyph>
<glyph name="zhe-cy.ss01" format="1">
  <advance width="775"/>
  <outline>
    <contour>
      <point x="289" y="500" type="line"/>
      <point x="289" y="459" type="line"/>
      <point x="352" y="462" type="line"/>
      <point x="348" y="439"/>
      <point x="348" y="421"/>
      <point x="348" y="394" type="curve" smooth="yes"/>
      <point x="347" y="152" type="line" smooth="yes"/>
      <point x="346" y="80"/>
      <point x="348" y="30"/>
      <point x="287" y="30" type="curve"/>
      <point x="287" y="0" type="line"/>
      <point x="486" y="0" type="line"/>
      <point x="486" y="41" type="line"/>
      <point x="423" y="38" type="line"/>
      <point x="427" y="61"/>
      <point x="427" y="79"/>
      <point x="427" y="106" type="curve" smooth="yes"/>
      <point x="429" y="348" type="line" smooth="yes"/>
      <point x="429" y="420"/>
      <point x="427" y="470"/>
      <point x="488" y="470" type="curve"/>
      <point x="488" y="500" type="line"/>
    </contour>
    <contour>
      <point x="300" y="282" type="line"/>
      <point x="300" y="268" type="line"/>
      <point x="231" y="268"/>
      <point x="192" y="266"/>
      <point x="175" y="229" type="curve" smooth="yes"/>
      <point x="162" y="199"/>
      <point x="141" y="149"/>
      <point x="126" y="119" type="curve" smooth="yes"/>
      <point x="104" y="70"/>
      <point x="62" y="30"/>
      <point x="16" y="30" type="curve"/>
      <point x="16" y="0" type="line"/>
      <point x="107" y="0" type="line" smooth="yes"/>
      <point x="144" y="0"/>
      <point x="177" y="28"/>
      <point x="206" y="90" type="curve" smooth="yes"/>
      <point x="224" y="130"/>
      <point x="235" y="160"/>
      <point x="254" y="199" type="curve" smooth="yes"/>
      <point x="264" y="220"/>
      <point x="276" y="237"/>
      <point x="297" y="245" type="curve"/>
      <point x="355" y="243" type="line"/>
      <point x="355" y="282" type="line"/>
    </contour>
    <contour>
      <point x="60" y="516"/>
      <point x="36" y="492"/>
      <point x="36" y="458" type="curve" smooth="yes"/>
      <point x="36" y="428"/>
      <point x="54" y="405"/>
      <point x="88" y="405" type="curve" smooth="yes"/>
      <point x="116" y="405"/>
      <point x="137" y="421"/>
      <point x="137" y="457" type="curve"/>
      <point x="160" y="436"/>
      <point x="165" y="419"/>
      <point x="187" y="340" type="curve" smooth="yes"/>
      <point x="202" y="286"/>
      <point x="235" y="259"/>
      <point x="285" y="259" type="curve" smooth="yes"/>
      <point x="325" y="259" type="line"/>
      <point x="325" y="282" type="line"/>
      <point x="265" y="282"/>
      <point x="243" y="289"/>
      <point x="225" y="357" type="curve" smooth="yes"/>
      <point x="195" y="467"/>
      <point x="162" y="516"/>
      <point x="102" y="516" type="curve" smooth="yes"/>
    </contour>
    <contour>
      <point x="419" y="282" type="line"/>
      <point x="419" y="243" type="line"/>
      <point x="478" y="245" type="line"/>
      <point x="499" y="237"/>
      <point x="511" y="220"/>
      <point x="521" y="199" type="curve" smooth="yes"/>
      <point x="540" y="160"/>
      <point x="551" y="130"/>
      <point x="569" y="90" type="curve" smooth="yes"/>
      <point x="598" y="28"/>
      <point x="631" y="0"/>
      <point x="668" y="0" type="curve" smooth="yes"/>
      <point x="759" y="0" type="line"/>
      <point x="759" y="30" type="line"/>
      <point x="713" y="30"/>
      <point x="671" y="70"/>
      <point x="648" y="119" type="curve" smooth="yes"/>
      <point x="634" y="149"/>
      <point x="613" y="199"/>
      <point x="600" y="229" type="curve" smooth="yes"/>
      <point x="583" y="266"/>
      <point x="543" y="268"/>
      <point x="475" y="268" type="curve"/>
      <point x="475" y="282" type="line"/>
    </contour>
    <contour>
      <point x="613" y="516"/>
      <point x="580" y="467"/>
      <point x="550" y="357" type="curve" smooth="yes"/>
      <point x="532" y="289"/>
      <point x="510" y="282"/>
      <point x="450" y="282" type="curve"/>
      <point x="450" y="259" type="line"/>
      <point x="490" y="259" type="line" smooth="yes"/>
      <point x="540" y="259"/>
      <point x="573" y="286"/>
      <point x="588" y="340" type="curve" smooth="yes"/>
      <point x="610" y="419"/>
      <point x="615" y="436"/>
      <point x="638" y="457" type="curve"/>
      <point x="638" y="421"/>
      <point x="659" y="405"/>
      <point x="687" y="405" type="curve" smooth="yes"/>
      <point x="721" y="405"/>
      <point x="739" y="428"/>
      <point x="739" y="458" type="curve" smooth="yes"/>
      <point x="739" y="492"/>
      <point x="715" y="516"/>
      <point x="673" y="516" type="curve" smooth="yes"/>
    </contour>
  </outline>
</glyph>
